<?xml version="1.0" encoding="utf-8"?>
<!-- Generator: Adobe Adobe Illustrator 24.2.0, SVG Export Plug-In . SVG Version: 6.00 Build 0)  -->
<svg version="1.1" xmlns="http://www.w3.org/2000/svg" xmlns:xlink="http://www.w3.org/1999/xlink" x="0px" y="0px"
	 viewBox="0 0 620.71 620.71" style="enable-background:new 0 0 620.71 620.71;" xml:space="preserve">
<style type="text/css">
	.st0{fill:#FFFFFF;stroke:#000000;stroke-miterlimit:10;}
	.st1{fill:#FFFFFF;}
	.st2{fill:none;stroke:#000000;stroke-miterlimit:10;}
	.st3{stroke:#FFFFFF;stroke-miterlimit:10;}
	.st4{fill:#F2F2F2;}
	.st5{fill:#F2F2F2;stroke:#000000;stroke-miterlimit:10;}
	.st6{fill:#F4F4F4;stroke:#000000;stroke-miterlimit:10;}
	.st7{stroke:#000000;stroke-miterlimit:10;}
</style>
<g id="Layer_1">
	<rect x="-10.64" y="-14.64" class="st4" width="642" height="650"/>
</g>
<g id="Layer_2">
</g>
<g id="Layer_5">
	<path class="st0" d="M54.2,535.21V342.36c0-17.68,14.33-32,32-32h113.24c17.68,0,32,14.33,32,32v192.85c0,17.68-14.33,32-32,32
		H86.21C68.53,567.21,54.2,552.89,54.2,535.21z"/>
	<path d="M231.45,535.21V209.36c0-17.68,14.33-32,32-32H376.7c17.68,0,32,14.33,32,32v325.85c0,17.68-14.33,32-32,32H263.46
		C245.78,567.21,231.45,552.89,231.45,535.21z"/>
	<path d="M231.45,144.27V76.36c0-17.67,14.33-32,32-32H376.7c17.68,0,32,14.33,32,32v67.91c0,17.67-14.33,32-32,32H263.46
		C245.78,176.27,231.45,161.94,231.45,144.27z"/>
	<g>
		<path class="st0" d="M141.98,589.49l-113.36-1.2c0,0-1.92-117.93,1.58-118.78c1.94-2.1,4.95-3.14,7.77-2.68
			c2.82,0.46,5.35,2.39,10.85,2.01c3.71-0.34,7.2,2.39,8.73,5.78s1.48,7.29,0.99,10.99c-0.25,1.86-0.59,3.73-0.34,5.59
			c0.25,1.86,1.23,3.74,2.94,4.5"/>
		<path class="st0" d="M64.34,483.45c-2.19,1.57-1.46,5.16,0.44,7.07s4.55,2.88,6.58,4.64c4.02,3.5,4.73,10.2,1.53,14.47"/>
		<path class="st0" d="M76.2,495.57c2.62,5.94,2.78,12.92,0.43,18.98"/>
		<path class="st0" d="M81.96,506.88c-0.29,7.88-2.78,15.66-7.11,22.25"/>
		<path class="st0" d="M83.93,518.91c-2.94,7.05-6.43,13.86-10.45,20.35"/>
		<path class="st0" d="M82.91,531.85c-4.76,4.46-7.61,10.89-7.72,17.42c-0.03,1.98,0.29,4.18,1.83,5.42s4.5,0.5,4.54-1.47"/>
		<path class="st0" d="M89.05,468.18c0.39-1.54,2.43-2.18,3.89-1.56c1.46,0.62,2.39,2.08,2.98,3.55c0.59,1.47,0.95,3.05,1.75,4.42
			c2.42,4.18,8.31,5.19,12.85,3.56c4.54-1.63,8.05-5.24,11.39-8.73"/>
		<path class="st0" d="M136.97,458.2c0.83,0.2,1.66,0.4,2.49,0.59c-0.63,4.69-1.26,9.38-1.89,14.07c-0.32,2.37-0.66,4.8-1.79,6.91
			c-1.55,2.89-4.38,4.81-6.79,7.04c-2.41,2.22-4.6,5.24-4.14,8.49"/>
		<path class="st0" d="M134.34,487.94c-3.25,2.34-4.85,6.36-5.62,10.29c-0.77,3.93-0.87,7.98-1.91,11.85
			c-2.64,9.73-10.77,16.81-18.49,23.28"/>
		<path class="st0" d="M130.03,518.6c-20.89,17.62-33.64,44.52-34.08,71.84"/>
		<path class="st0" d="M103.55,573.39c-1.59,6.35-2.32,12.91-2.16,19.45"/>
		<path class="st0" d="M113.12,560.89c-4.13,11.36-6.16,23.48-5.97,35.56"/>
		<path class="st0" d="M123.72,552.74c-7.42,13.29-11.39,28.49-11.43,43.71"/>
		<path class="st0" d="M125.84,559.68c-6.39,11.15-9.41,24.21-8.56,37.03c-0.02-0.33-0.03-0.66-0.05-0.98"/>
		<path class="st0" d="M128.3,564.99c-4.46,9.86-6.06,20.98-4.58,31.7"/>
		<path class="st0" d="M139.76,457.85c0.67-2.06,0.68-4.26,0.93-6.41c0.26-2.15,0.83-4.39,2.35-5.92c1.53-1.54,4.24-2.05,5.85-0.6
			c1.88,1.7,1.24,4.84-0.12,6.98s-3.32,4.01-3.85,6.49c-0.33,1.56-0.04,3.18,0.25,4.75c0.29,1.57,0.59,3.18,0.27,4.75
			s-1.4,3.08-2.96,3.42c-1.56,0.33-3.39-1.01-3.15-2.58"/>
		<path class="st0" d="M96.82,444.44c3.61,3.7,9.91,3.43,14.36,0.79c4.45-2.64,7.48-7.07,10.37-11.36"/>
		<path class="st0" d="M114.12,443.3c7.03,0.24,13.91-4.68,15.96-11.4"/>
		<path class="st0" d="M123.97,439.84c7.03-0.11,13.69-5.29,15.53-12.07"/>
	</g>
	<g>
		<path class="st3" d="M515.97,269.34c5.4,3.97,5.77,12.24,2.98,18.34c-2.78,6.1-7.91,10.75-12.29,15.83
			c-4.38,5.08-8.27,11.32-7.7,18c2.6-9.43,8.73-17.85,16.9-23.21c-4.22,6.95-8.44,13.9-12.66,20.85c3.19-3.98,6.39-7.97,9.58-11.95
			c7.58,5.19,7.27,16.63,3.92,25.19s-8.96,16.56-9.35,25.75c-0.45,10.57,6.17,20.81,4.28,31.22c-1.72,9.44-10.03,16.47-12.55,25.73
			c-1.64,6.02-0.68,12.39-0.78,18.63c-0.1,6.24-1.66,13.09-6.74,16.71c-5.55,3.96-13.34,2.62-19.46-0.39
			c-6.12-3-11.53-7.46-17.97-9.71c-9.1-3.18-19.06-1.58-28.7-1.76c-9.64-0.19-20.49-3.13-24.88-11.71
			c6.58,9.68,18.64,13.69,29.84,17.08c12.29,3.72,24.57,7.44,36.72,10.03c-6.78,15.5-13.57,31-20.35,46.5
			c6.42-5.78,8.82-14.65,11.82-22.76c3-8.11,7.73-16.66,15.99-19.22c4.73-1.47,9.86-0.69,14.75-1.51c4.89-0.82,10.12-4.32,9.92-9.27
			c11.36,4.43,24.61,3.69,35.41-1.98c-32.2,14.7-40.07,58.66-69.16,78.83c-19.67,13.64-47.03,13.71-68.31,2.75
			c-21.28-10.96-36.57-31.73-43.88-54.53c9.43,5.54,22.16-2.24,25.8-12.55s0.95-21.66-1.86-32.23c3.87-3.43,5.18-9.45,3.09-14.19
			c3.48-1.53,4.81-6.54,2.56-9.6c6.54-5.42,10.54-13.79,10.65-22.28c-9.28,9.61-23.77,13.86-36.76,10.77
			c0.62-23.36,1.24-46.72,1.85-70.08c0.14-5.16,0.84-11.3,5.42-13.7c4.7-2.47,10.8,1.11,12.77,6.04c1.97,4.93,0.93,10.52-0.54,15.62
			c-1.47,5.1-3.34,10.26-2.95,15.56c4.01-5.25,8.03-10.49,12.04-15.74c-2.09,5.19-4.18,10.38-6.27,15.57
			c7.66-7.89,14.09-16.97,19-26.81c-2.24,4.43-4.49,8.86-6.73,13.3c9.41-5.84,18.95-11.78,26.46-19.92
			c7.51-8.14,12.87-18.9,12.14-29.95c5.22-2.41,10.44-4.82,15.67-7.23c1.57,5.01,3.14,10.02,4.71,15.03
			c5.17-0.23,9.66-5.18,9.37-10.35c2.11,4.85,10.13,5.37,12.85,0.83c10.16,4.15,23.22-1.73,26.75-11.91
			c4.64,1.43,9.27,2.85,13.91,4.28"/>
		<path class="st3" d="M435.89,339.6c-2.02-0.39-2.97-2.95-2.41-4.92c0.56-1.98,2.13-3.48,3.64-4.87c3.92-3.62,8.71-7.52,13.95-6.5
			c2.77,0.54,5.26,2.43,8.08,2.34c3.04-0.1,5.45-2.46,7.79-4.42c2.34-1.95,5.54-3.7,8.3-2.41c2.41,1.13,3.35,4.24,2.83,6.85
			c-0.52,2.61-2.16,4.84-3.75,6.98"/>
		<path class="st3" d="M426.2,350.17c5.42-1.93,9.49-6.34,13.68-10.29c4.19-3.94,9.18-7.72,14.93-7.8c2.65-0.04,5.25,0.73,7.87,1.12
			c2.63,0.39,5.49,0.34,7.7-1.14"/>
		<path class="st3" d="M435.78,349.73c5.55-5.31,11.45-10.81,18.9-12.68c5.42-1.36,11.25-0.66,16.53-2.49"/>
		<path class="st3" d="M451.01,341.64c1.81,1.79,4.52,2.62,7.02,2.15s4.72-2.25,5.73-4.59"/>
		<path class="st3" d="M431.84,360.86c3-4.27,8.01-7.05,13.21-7.35c2.35-0.13,4.72,0.21,7.06,0c2.35-0.21,4.81-1.12,6.07-3.1"/>
		<path class="st3" d="M419.64,344.87c-1.59,0.05-2.87-1.51-3.04-3.09c-0.16-1.58,0.51-3.13,1.29-4.51
			c1.55-2.74,3.58-5.21,5.97-7.26c5.03-4.32,11.43-6.63,17.68-8.86"/>
		<path class="st3" d="M465.25,364.56c-1.17,1.14-2.36,2.31-3.04,3.79c-0.68,1.48-0.73,3.36,0.29,4.63
			c1.24,1.54,3.59,1.65,5.48,1.06c1.89-0.59,3.57-1.73,5.46-2.31c4.02-1.24,8.3,0.18,12.41,1.02c4.12,0.84,9.03,0.84,11.77-2.35
			c1.99-2.32,2.2-5.61,2.58-8.64c0.38-3.03,1.27-6.39,3.92-7.9"/>
		<path class="st3" d="M436.81,398.09c1.47-3.51,5.94-4.86,9.7-4.24c3.76,0.62,7.09,2.69,10.58,4.23c3.49,1.53,7.57,2.53,11.05,0.96
			c2.16-0.98,3.79-2.82,5.49-4.48c1.7-1.66,3.7-3.24,6.06-3.46c2.36-0.22,5.03,1.54,4.93,4.12c0.52-4.36,5.02-7.82,9.37-7.19
			c1.83,0.26,3.62,1.14,5.45,0.86c2.97-0.45,4.61-3.62,5.76-6.4"/>
		<path class="st3" d="M449.68,399.24c7.26,4.71,16.18,6.81,24.78,5.82c3.07-0.35,6.09-1.09,9.1-1.82
			c5.52-1.34,11.22-2.77,15.67-6.3"/>
		<path class="st3" d="M448.92,406.82c5.71-0.23,10.74,3.4,15.69,6.26c4.95,2.86,11.32,5.03,16.18,2.01
			c1.83-1.14,3.37-2.98,5.5-3.26c1.6-0.21,3.16,0.52,4.76,0.76c1.6,0.24,3.61-0.34,3.95-1.92"/>
		<path class="st3" d="M392.73,308.05c-1.55,4.38-3.12,8.87-3.05,13.52c0.07,4.64,2.13,9.55,6.24,11.72
			c3.43,1.82,7.83,1.38,11.06-0.77c3.23-2.15,5.28-5.85,5.8-9.69"/>
		<path class="st3" d="M402.54,304.58c0.12,3.35,0.26,6.75,1.39,9.9c1.13,3.15,3.44,6.06,6.63,7.06c4.69,1.46,9.63-1.52,12.98-5.1
			c5.34-5.71,8.61-13.31,9.08-21.12c0.32-5.37-0.64-10.84,0.43-16.11c1.07-5.28,5.11-10.59,10.49-10.56"/>
		<path class="st3" d="M433,264.34c3.17,6.79,0.13,15.47,3.99,21.89c3.35,5.57,11.25,7.28,17.26,4.78
			c6.01-2.5,10.14-8.32,12.09-14.53"/>
		<path class="st3" d="M457.62,268.65c-1.96,3.78-2.38,8.4-0.82,12.37s5.15,7.14,9.34,7.9s8.81-1.1,10.98-3.62
			c4.51,1.55,9.68,1.04,13.8-1.37c4.12-2.41,7.11-6.66,7.97-11.35c-0.41,2.79,1.69,5.57,4.38,6.4c2.69,0.82,5.72-0.08,7.87-1.89
			c2.16-1.81,3.53-4.4,4.37-7.09c-0.28,2.88,3.41,4.84,6.16,3.95s4.53-3.51,5.87-6.08"/>
		<path class="st3" d="M398.74,376.5c2.31,8.54-1.08,18.33-8.17,23.61s-17.45,5.71-24.96,1.04"/>
		<path class="st3" d="M384.08,399.38c4.04,2.05,5.85,7.58,3.8,11.62s-7.59,5.84-11.62,3.78c4.59,1.51,7.76,6.49,7.19,11.28
			c-0.57,4.79-4.82,8.89-9.63,9.29"/>
		<path class="st3" d="M352.04,431.18c2.43,4.46,8.27,6.4,13.19,5.12c4.92-1.29,8.82-5.28,10.94-9.89s2.66-9.81,3.02-14.81"/>
		<path class="st3" d="M362.39,412.3c1.99,6.35,11.04,6.73,16.18,0.67c5.14-6.06,4.31-16.12-1.48-17.99
			c4.59-1.58,8.95-5.97,11-11.06c2.05-5.09,1.71-10.69-0.86-14.13"/>
		<path class="st3" d="M388.3,436.56c2.33,6.92-0.61,15.25-6.76,19.17c-6.16,3.92-14.95,3.07-20.23-1.97c0.52,4-1.74,8.2-5.36,9.98
			c-3.62,1.77-8.33,0.99-11.17-1.87"/>
		<path class="st3" d="M354.43,442.6c-1.56,4.61,2.24,9.85,7,10.85c4.76,1,9.74-1.47,12.89-5.18c3.14-3.71,4.75-8.47,5.92-13.19"/>
		<path class="st3" d="M516.32,342.03c4.03,0.09,7.25,4.07,7.39,8.09c0.15,4.03-2.19,7.82-5.28,10.41
			c-3.08,2.59-6.86,4.18-10.58,5.74"/>
		<path class="st3" d="M522.1,367.77c3.62,0.57,5.98,4.62,5.52,8.25c-0.46,3.63-3.16,6.67-6.34,8.49c-3.18,1.82-6.82,2.61-10.4,3.38
			"/>
		<path class="st3" d="M532.41,346.64c4.05,2.69,4.86,8.67,2.84,13.1s-6.17,7.51-10.48,9.75c-4.89,2.55-11.42,4.07-15.48,0.35"/>
		<path class="st3" d="M521.74,342.55c2.06,3.89,7.02,5.98,11.24,4.73s7.25-5.7,6.86-10.08"/>
	</g>
	<g>
		<g>
			<path class="st3" d="M341.45,235.26l0.95-0.12l-84.7,0c0,0,0-121.89,0.59-121.37c2.27-3.25,7.24-3.51,10.74-1.64
				c3.5,1.86,5.86,5.26,8.09,8.54c5.16,7.59,10.55,15.94,9.97,25.1c-0.33,5.23-2.6,10.11-4.16,15.11c-0.76,2.44-1.36,4.93-1.96,7.42
				c-1.86,7.74-3.71,15.47-5.57,23.21c3.23-6.74,6.45-13.47,9.68-20.21c2.28,3.39,1.64,8.43-1.41,11.14c1.77-1.8,3.54-3.6,5.31-5.4
				c0.59,2.19,0.21,4.63-1.02,6.53c1.13-0.86,2.26-1.71,3.39-2.57c1.43,2.4,2.68,4.92,3.74,7.51c1.79-2.75,3.73-5.64,6.73-6.97
				s7.3-0.21,8.11,2.97c0.61,2.39-0.9,4.74-1.97,6.96c-1.07,2.23-1.53,5.35,0.47,6.78c1.08,0.22,2.16,0.43,3.23,0.65
				c-12.6,6.29-25.2,12.57-37.79,18.86c12.52-4.56,25.05-9.13,37.57-13.69c1.55,2.37,1.54,5.65-0.02,8.01
				c-1.56,2.36-4.58,3.65-7.37,3.16c2.93,0.36,6.05,0.7,8.72-0.56s4.52-4.75,2.96-7.26c11.4-1.1,22.81-2.19,34.21-3.29
				c-4.09,4.48-7.64,9.65-9.09,15.54c2.05-2.77,4.11-5.55,6.16-8.32c7.5,3.76,15.01,7.52,22.51,11.27c2.57,1.29,5.28,2.71,6.7,5.2
				c2.44,4.28,0.12,9.76,1.28,14.55c0.72,2.95,2.71,5.43,3.82,8.25c2.45,6.21,0.43,13.19-1.61,19.55"/>
			<path class="st3" d="M344.89,169.63c-6.42-0.52-12.89-0.51-19.31,0.03c0.12-5.19,0.28-10.52,2.32-15.29
				c1.18-2.77,2.96-5.23,4.72-7.68c1.93-2.67,3.94-5.42,6.78-7.07c2.72-1.58,6-2.04,8.64-3.75c3.23-2.1,5.03-5.78,6.4-9.38
				c2.54-6.66,4.16-13.67,4.93-19.78c0.62-0.63,1.25-1.26,1.87-1.89c-0.09,9.75-2.18,19.47-6.1,28.39c2.41-0.3,4.47-2.02,5.69-4.12
				c1.22-2.1,1.69-4.55,1.92-6.96c0.45-4.66,0.08-9.39-1.09-13.92c-0.28-1.1-0.33-2.71,0.8-2.92c0.99-0.18,1.61,1.03,1.84,2.02
				c1.81,7.58,1.93,15.55,0.35,23.18c3.59-6.32,3.74-14.47,0.37-20.91c-0.38-0.73-0.81-1.47-0.81-2.29s0.65-1.7,1.46-1.62
				c0.63,0.07,1.06,0.64,1.39,1.18c5.22,8.39,5.53,19.6,0.78,28.26c6.19-2.72,9.74-10.36,7.83-16.85c-0.27-0.93-0.65-1.87-0.55-2.84
				s0.91-1.95,1.87-1.82c0.99,0.13,1.49,1.24,1.78,2.19c1.18,3.85,2.05,7.94,1.23,11.88c-1.06,5.12-4.76,9.22-8.32,13.05
				c-3.56,3.84-7.22,7.75-11.88,10.14c-1.87,0.96-3.91,1.67-5.5,3.05c-1.59,1.37-2.65,3.68-1.95,5.68c0.04,0,0.08,0,0.12,0"/>
			<path class="st3" d="M339.74,81.65c0.76,1.25,2.67,0.29,3.75-0.7c1.08-0.99,3.15-1.73,3.68-0.37c0.29,0.74-0.23,1.54-0.8,2.09
				c-0.57,0.55-1.26,1.07-1.45,1.83s0.59,1.75,1.28,1.37c-0.99,0.58-1.48,1.9-1.11,2.99c0.37,1.09,1.56,1.84,2.7,1.7
				c0.08,1.01-0.67,1.89-1.45,2.54c-0.78,0.65-1.68,1.23-2.11,2.16s-0.03,2.3,0.97,2.43c0.51,0.07,1-0.2,1.44-0.45
				c2.81-1.61,5.62-3.23,8.43-4.84c-1.7,2.33-3.39,4.67-5.09,7c0.85,0.54,2.09,0.32,2.7-0.48c-0.46-0.43-1.31,0.12-1.26,0.75
				c0.05,0.63,0.71,1.07,1.34,1.1c0.63,0.03,1.23-0.24,1.81-0.5c2.76-1.27,5.52-2.54,8.28-3.81c-2,4.56-5.48,8.46-9.78,10.97
				c0.85,0.86,2.36,0.31,3.19-0.56c0.83-0.87,1.41-2.04,2.46-2.62c1.06-0.58,2.82,0.03,2.64,1.23c-0.06,0.41-0.34,0.75-0.6,1.07
				c-2.7,3.24-5.4,6.48-8.11,9.72c-1.23,1.47-2.49,2.97-4.14,3.94c-1.65,0.97-3.8,1.32-5.47,0.39c-0.09-1.11,0.32-2.26,1.09-3.06
				c-5.08,7.21-12.16,13-20.24,16.54c-4.48,1.97-10.03,3.14-14.02,0.29c-2.77-1.98-4.08-5.55-4.02-8.96s1.33-6.67,2.86-9.72
				c0.86-1.71,1.6-4.23-0.07-5.16c-0.42-0.23-0.92-0.3-1.29-0.6c-0.85-0.68-0.51-2.03-0.1-3.04c1.97-4.8,3.93-9.61,5.9-14.41
				c0.5-1.23,1.05-2.52,2.14-3.28s2.86-0.7,3.48,0.47c0.57,1.07-0.09,2.38-0.9,3.28s-1.82,1.73-2.11,2.9
				c-0.29,1.18,0.77,2.7,1.89,2.25c0.52-0.21,0.82-0.74,1.08-1.23c2.57-4.84,5.14-9.69,7.72-14.53c-1.52,2.72-3.08,5.62-2.94,8.73
				c0.14,3.11,2.74,6.32,5.83,5.9c-2.86-0.8-4.26-4.28-3.77-7.21c0.49-2.93,2.36-5.42,4.17-7.77c-1.17,1.61-2.2,3.4-2.47,5.37
				c-0.27,1.97,0.36,4.16,1.97,5.33c1.61,1.17,4.23,0.91,5.25-0.8c-2,1.03-4.41-1.25-4.4-3.5c0.01-2.25,1.51-4.19,2.94-5.93
				c-1.31,1.57-0.88,4.26,0.85,5.35c1.73,1.09,4.34,0.31,5.19-1.55c-1.59,0.55-3.4-0.79-3.74-2.44c-0.33-1.65,0.52-3.36,1.75-4.51
				c1.24-1.14,2.82-1.83,4.37-2.49c-2.07,0.69-3.01,3.58-1.74,5.36"/>
		</g>
		<path class="st3" d="M343.38,235.81c3.29-0.29,6.21,3.46,5.13,6.58c-0.78,2.24-3.16,4.11-2.66,6.43c0.23,1.06,1.05,1.9,1.43,2.92
			c0.7,1.86-0.2,4-1.56,5.44c-1.37,1.45-3.15,2.42-4.73,3.62c-3.06,2.32-5.4,5.58-6.62,9.23c3.56-2.09,6.99-4.42,10.25-6.96
			c2.55-1.99,5.11-4.25,6.22-7.29c0.79-2.17,0.78-4.56,1.38-6.8s2.14-4.52,4.43-4.81c-0.12,3.44,1.04,6.9,3.19,9.58
			c0.89,1.11,1.95,2.11,2.55,3.4c1.36,2.94-0.08,6.4-1.88,9.09c-1.8,2.69-4.06,5.29-4.49,8.5c4.3-1.84,7.67-5.72,8.89-10.24
			c1.22-4.51,0.28-9.56-2.5-13.33c-0.91-1.23-2.02-2.94-1.01-4.09c0.91-1.04,2.66-0.4,3.65,0.56c3.51,3.39,3.24,9.09,1.95,13.8
			s-3.39,9.45-2.64,14.28c5.7-6.83,8.35-16.12,7.12-24.93c-0.13-0.93-0.3-1.89-0.04-2.79s1.09-1.72,2.02-1.6
			c0.73,0.09,1.27,0.71,1.7,1.31c3.25,4.59,3.92,10.88,1.7,16.05c-0.52,1.21-1.18,2.36-1.59,3.6c-0.41,1.25-0.53,2.66,0.02,3.85
			c0.56,1.19,1.94,2.05,3.21,1.68c1.26-0.36,1.94-2.18,1.01-3.11"/>
	</g>
	<path class="st0" d="M55.62,278.35V76.36c0-17.68,14.33-32,32-32h110.41c17.68,0,32,14.33,32,32v201.99c0,17.68-14.33,32-32,32
		H87.62C69.95,310.36,55.62,296.03,55.62,278.35z"/>
	<g>
		<path class="st0" d="M91.24,197.88c-5.27-1.02-11.17-1.93-15.62,1.06c-3.49,2.34-5.2,6.5-7.89,9.71
			c-3.38,4.02-8.22,6.45-12.74,9.13s-9.06,5.96-11.09,10.8"/>
		<path class="st0" d="M86.77,204.75c8.64-0.67,17.13-3.27,24.67-7.56c-2.04,3.61-5.68,6.09-9.56,7.54s-8.04,1.97-12.15,2.49"/>
		<path class="st0" d="M109.85,201.62c0.85,0.57,1.71,1.13,2.56,1.7c-6.05,4.13-13.09,6.79-20.36,7.69"/>
		<path class="st0" d="M113.15,210.36c-0.63,2.42-3.73,3.02-6.23,3.16c-5.42,0.3-10.85,0.6-16.27,0.9"/>
		<path class="st0" d="M114.83,218.28c-16.32-3.35-33.82-0.56-48.29,7.71"/>
		<path class="st0" d="M77.07,222.23c-7.34,4.21-14.85,8.56-20.23,15.09c-4.72,5.72-8.03,13.24-14.82,16.2"/>
		<path class="st0" d="M120.56,196.72c4.48-2.03,8.97-4.07,13.45-6.1c0.87-0.4,2.08-0.71,2.64,0.07c0.69,0.97-0.55,2.14-1.61,2.69
			c-4.08,2.11-8.17,4.21-12.25,6.32c-1.11,0.57-2.37,1.16-3.57,0.8c-1.2-0.36-1.84-2.23-0.77-2.87"/>
		<path class="st0" d="M122.33,203.11c1.06,1.94,3.58,2.65,5.78,2.38c2.2-0.26,4.23-1.26,6.34-1.93c3.79-1.19,7.92-1.27,11.75-0.24"
			/>
		<path class="st0" d="M142.45,208.58c-5.02-0.48-10.04-0.95-14.15,1.44c4.5,1.84,9.29,2.97,14.13,3.32"/>
		<path class="st0" d="M148.9,195.38c0.57,2.07,1.15,4.14,1.72,6.21c-1.06-0.3-2.03,0.9-2.03,2s0.62,2.09,1.06,3.1
			c0.44,1.01,0.7,2.26,0.06,3.15c-0.58,0.81-1.73,1.07-2.26,1.92c-0.55,0.86-0.25,1.99-0.32,3.01c-0.11,1.7-1.24,3.12-2.2,4.53
			c-4.17,6.13-5.69,13.63-7.12,20.9"/>
		<path class="st0" d="M153.27,206.73c2.65,1.39,5.58,2.22,9.52,0.4c-1.06,6.66-2.13,13.32-3.19,19.98c0.05-0.41,0.1-0.82,0.15-1.23
			"/>
		<path class="st0" d="M148.66,222.65c3.7,0.54,7.39,1.08,11.09,1.62"/>
		<path class="st0" d="M77.75,148.15c3.37,0.51,6.74,1.03,10.11,1.54"/>
		<path class="st0" d="M93.78,149.29c0.24-2.39,2.32-4.21,4.52-5.16c2.2-0.95,4.63-1.28,6.86-2.16c2.23-0.88,4.4-2.54,4.87-4.89"/>
		<path class="st0" d="M100.67,147.87c2.65,1.08,5.96,0.21,7.73-2.03"/>
		<path class="st0" d="M95.75,127.51c4.3-0.14,8.19-3.86,8.52-8.15"/>
		<path class="st0" d="M100.84,126.43c3.93-0.19,7.38-3.82,7.37-7.76"/>
		<path class="st0" d="M104.77,127.47c4.38-0.56,8.11-4.42,8.52-8.82"/>
		<path class="st0" d="M109.6,127.84c0.5,1.11,2.13,1.24,3.18,0.62c1.05-0.62,1.71-1.72,2.49-2.65c0.78-0.94,1.88-1.8,3.09-1.66
			c2.17,0.26,2.64,3.37,1.72,5.36c-0.54,1.16-1.32,2.18-1.85,3.34c-0.52,1.16-0.75,2.57-0.14,3.68s2.3,1.64,3.22,0.75"/>
		<path class="st0" d="M114.1,131.05c1.48,1.55,0.9,4.07,0.15,6.08c-0.75,2.01-1.53,4.4-0.3,6.16c1.21,1.73,3.88,1.82,5.71,0.77
			c1.83-1.05,3.01-2.92,4.12-4.71"/>
		<path class="st0" d="M116.59,147c2.26,0.9,5.04,0.28,6.7-1.49"/>
		<path class="st0" d="M117.46,152.83c3.81-1.02,7.24-3.41,9.51-6.64"/>
		<path class="st0" d="M122.49,151.04c1.01,3.87-0.59,8.29-3.85,10.62"/>
		<path class="st0" d="M124.08,153.81c0.68,3.84-1.04,8-4.22,10.25"/>
		<path class="st0" d="M74.15,171.84c1.86,8.23,9.88,14.63,18.32,14.62c8.44-0.01,16.44-6.42,18.29-14.65"/>
		<path class="st0" d="M46.94,285.21c31.9-7.22,65.07-8.77,97.5-4.54"/>
		<path class="st0" d="M52.12,271.25c5.32-6.3,14.77-7.38,22.83-5.66c8.06,1.72,15.47,5.69,23.41,7.88
			c13.29,3.67,27.95,2.08,40.14-4.35c-1.45-0.14-2.9-0.29-4.35-0.43"/>
		<path class="st0" d="M78.74,256.35c5.69-1.61,11.24,2.37,16.36,5.32c15.62,8.98,35.96,9.09,51.67,0.27"/>
		<path class="st0" d="M125.1,262.19c7.19,0.62,14.58-1.32,20.53-5.4"/>
		<path class="st0" d="M131.34,256.84c3.62-0.85,7.24-1.69,10.86-2.54"/>
		<path class="st0" d="M149.66,223.8c0.44,19.32,0.87,38.65,0.62,57.99"/>
	</g>
</g>
</svg>
