<?xml version="1.0" encoding="utf-8"?>
<!-- Generator: Adobe Adobe Illustrator 24.2.0, SVG Export Plug-In . SVG Version: 6.00 Build 0)  -->
<svg version="1.1" xmlns="http://www.w3.org/2000/svg" xmlns:xlink="http://www.w3.org/1999/xlink" x="0px" y="0px"
	 viewBox="0 0 620.71 620.71" style="enable-background:new 0 0 620.71 620.71;" xml:space="preserve">
<style type="text/css">
	.st0{fill:#FFFFFF;stroke:#000000;stroke-miterlimit:10;}
	.st1{fill:#FFFFFF;}
	.st2{fill:none;stroke:#000000;stroke-miterlimit:10;}
	.st3{stroke:#FFFFFF;stroke-miterlimit:10;}
	.st4{fill:#F2F2F2;}
	.st5{fill:#F2F2F2;stroke:#000000;stroke-miterlimit:10;}
	.st6{fill:#F4F4F4;stroke:#000000;stroke-miterlimit:10;}
	.st7{stroke:#000000;stroke-miterlimit:10;}
</style>
<g id="Layer_1">
	<path class="st0" d="M228.59,295.22c-8.79-3.35-17.57-6.7-26.36-10.05"/>
</g>
<g id="Layer_2">
	<g>
		<path class="st2" d="M436.12,221.8c1.86,4.71,8.35,6.4,12.85,4.09c4.5-2.32,6.92-7.59,6.99-12.65s-1.85-9.95-4.19-14.44
			c5.26-1.35,7.99-7.34,8.25-12.76s-1.19-10.83-0.87-16.24c0.55-9.34,6.82-18.12,15.49-21.66s19.29-1.67,26.22,4.61
			c8.42,7.63,10.68,20.34,8.44,31.48s-8.27,21.11-14.37,30.7s-12.47,19.27-15.5,30.22c-2.33,8.4-2.65,17.38-6.13,25.36
			s-11.72,15.03-20.21,13.09"/>
		<path class="st2" d="M437.42,239.29c2.02-3.44,6.6-5.14,10.38-3.85c3.78,1.29,6.36,5.43,5.86,9.39c-0.29,2.29-1.47,4.39-1.94,6.65
			c-0.46,2.27,0.1,5.08,2.21,6.02c2.14,0.95,4.55-0.51,6.32-2.04c8.17-7.06,13.52-17.31,14.65-28.05
			c1.13-10.74-1.97-21.87-8.49-30.48"/>
		<path class="st2" d="M258.82,84.66c-11.61,12.48-18.84,28.96-20.16,45.95s3.25,34.39,12.78,48.52"/>
		<path class="st0" d="M233.71,65.58c-14.84-10.96-23.88-29.36-23.5-47.81c-1.89,15.93,4.24,32.61,15.99,43.53
			c-12.24-8.02-21.23-20.85-24.59-35.09c1.9,14.93,10.28,28.92,22.54,37.65c-14.04-4.57-25.8-15.66-31.2-29.4
			c5.75,13.85,15.37,26.06,27.5,34.88c-11.51-2.24-22.31-7.98-30.61-16.26c7.58,7.31,16.51,13.22,26.21,17.33
			c-10.15,1.34-20.71-0.72-29.61-5.76c9.3,3.9,19.3,6.12,29.38,6.52c-8.84,1.61-17.68,3.21-26.52,4.82
			c9.47,0.82,19.03,0.61,28.45-0.61c-7.64,4.78-16.06,8.31-24.83,10.39c8.81,1.11,18.02-1.27,25.19-6.51
			c-5.32,6.34-12.36,11.23-20.17,13.99c8.2,0.26,16.41-3.91,21.05-10.68c-6.73,9.95-16.23,17.99-27.16,22.98
			c8-1.7,15.59-5.31,21.97-10.43c-3.28,5.43-8.62,9.59-14.69,11.43c7.16-1.41,14.01-4.35,19.95-8.57
			c-4.15,6.59-11.09,11.35-18.72,12.86c5.75,0.61,11.66-0.26,16.99-2.51c-3.91,1.63-7.81,3.26-11.72,4.89"/>
		<path class="st0" d="M246.6,56.31c-4.88-12.34-7.9-25.41-8.93-38.64c0.48,11.03,6.53,21.67,15.76,27.73
			c-4.86-7.14-7.29-15.89-6.83-24.51c-0.19,10.15,5.38,20.22,14.09,25.44c-4.92-7.95-7.41-17.38-7.06-26.73
			c1.1,9.31,4.86,18.29,10.73,25.6c-3.29-7.04-4.79-14.92-4.3-22.68c0.8,9.22,4.59,18.16,10.66,25.15
			c-3.74-7.2-5.51-15.41-5.07-23.51c1.95,7.76,5.01,15.23,9.05,22.13c-1.19-7.58-2.38-15.15-3.57-22.73
			c1.11,8.05,3.66,15.9,7.49,23.07c-0.56-7.48-1.13-14.97-1.69-22.45c1.41,21.6,12.6,42.38,29.86,55.45"/>
		<path class="st0" d="M200.57,165.04c7.16-4.85,13.55-10.85,18.84-17.7c-1.06,8.05-5.43,15.62-11.87,20.56
			c5.97-3.95,10.87-9.5,14.07-15.91c-3,6.49-6.01,12.98-9.01,19.47c4.08-5.38,8.16-10.76,12.24-16.15
			c-2.63,6.59-5.26,13.19-7.88,19.78c2.98-5.17,5.96-10.34,8.94-15.51c-1.45,5.16-2.89,10.33-4.34,15.49
			c4.2-6.34,8.4-12.68,12.59-19.03c-1.6,5.62-3.2,11.23-4.79,16.85c5.55-16.57,20.78-29.48,38.04-32.24"/>
		<g>
			<g>
				<path d="M296.5,76.89h-33.26v115.79h33.26c18.37,0,33.26-25.92,33.26-57.89C329.75,102.81,314.86,76.89,296.5,76.89z"/>
			</g>
		</g>
		<ellipse class="st0" cx="264.99" cy="134.78" rx="33.26" ry="57.89"/>
		<circle class="st3" cx="280.74" cy="210.18" r="17.51"/>
		<g>
			<g>
				<path class="st3" d="M305.79,258.35c0.15-1.23,0.24-2.48,0.24-3.76c0-15.24-11.33-27.59-25.3-27.59
					c-13.97,0-25.3,12.35-25.3,27.59c0,1.28,0.09,2.53,0.24,3.76H305.79z"/>
			</g>
		</g>
		<path class="st2" d="M255.98,91.23c-14.44,25.42-15.7,57.88-3.29,84.35"/>
		<path class="st2" d="M237.09,129.57c8.92-1.53,12.71-14.24,21.7-15.31c5.25-0.62,9.89,3.08,14.08,6.29
			c4.19,3.21,9.59,6.28,14.49,4.3"/>
		<path class="st2" d="M257.05,119.46c-1.78,4.6,0.68,10.41,5.23,12.32c4.55,1.92,10.42-0.37,12.47-4.87"/>
		<path class="st2" d="M255.56,108.75c4.93-2.83,10.96-3.67,16.47-2.31c5.52,1.36,10.46,4.91,13.51,9.71"/>
		<path class="st2" d="M262.06,220.52c-1.63-4.65-4.8-8.75-8.89-11.5c-8.14,3.48-11.71,12.86-14.24,21.34
			c-2.53,8.48-5.54,17.9-13.31,22.13c-5.34,2.9-11.89,2.68-17.38,5.29c-5.83,2.77-9.83,8.51-11.94,14.61
			c-2.11,6.11-2.55,12.64-2.99,19.09"/>
		<path class="st2" d="M213.34,281.52c14.93-10.12,31.41-17.93,48.69-23.07"/>
		<path class="st2" d="M234.01,297.28c14.81-7.46,30.99-12.2,47.48-13.94"/>
		<g>
			<g>
				<g>
					<path class="st3" d="M357.26,41.98c0.34,0.07,0.69,0.14,1.03,0.21C357.95,42.12,357.6,42.05,357.26,41.98z"/>
					<path class="st3" d="M361.6,42.81c1.34,0.22,2.68,0.4,4.02,0.56C364.28,43.21,362.94,43.03,361.6,42.81z"/>
					<path class="st3" d="M366.77,43.47c0.96,0.1,1.92,0.19,2.87,0.26C368.69,43.66,367.73,43.57,366.77,43.47z"/>
					<path class="st3" d="M377.74,43.94c-0.92,0.01-1.84,0.01-2.76-0.01C375.9,43.95,376.82,43.95,377.74,43.94z"/>
					<path class="st3" d="M370.93,43.8c0.92,0.05,1.84,0.1,2.77,0.12C372.77,43.9,371.85,43.85,370.93,43.8z"/>
					<path class="st3" d="M291.28,46.25c-0.03,4.38-0.13,11.15-0.4,15.92c13.57-4.92,24.71,1.29,31.74,9.95s10.75,19.47,14.33,30.04
						c2.47,7.29,4.97,15.13,2.92,22.55c-2.55,9.2-11.57,15.67-13.53,25.01c-2.05,9.74,4.19,19.6,3.05,29.49
						c-2.07,18.05-26.09,25.74-31.79,43c-3.06,9.25-0.42,20.3-5.92,28.34c-5.42,7.92-17.65,11.08-19.31,20.52
						c-1.32,7.45,5.01,15.64,1.21,22.19c-2.2,3.79-7.5,6.23-7.12,10.59c0.39,4.48,6.21,5.82,10.71,5.98
						c22.41,0.8,44.82,1.59,67.23,2.39c9.95,0.35,22.5-0.95,25.8-10.34c0.53-1.5,0.69-3.09,0.56-4.67l3.18,12.55
						c-0.19-0.44,3.48,0.19,3.34-0.26c1.02-35.1,1.37-84.17,1.42-130.71c0-0.8,0-1.6,0-2.39c0.05-59.7-0.38-114.74-0.51-130.14
						H291.28z M365.11,287.86c-3.72-2.22-8.66-2.02-12.33,0.22c4.32-3.54,8.64-7.08,12.97-10.63l4,15.8
						C368.78,291.03,367.19,289.1,365.11,287.86z"/>
					<path class="st3" d="M322.07,42.34c0.02,0,0.03,0,0.05,0C322.1,42.34,322.09,42.34,322.07,42.34z"/>
					<path class="st3" d="M324.2,42.36c-0.15,0-0.31,0.01-0.46,0.01C323.89,42.36,324.05,42.36,324.2,42.36z"/>
					<path class="st3" d="M325.51,42.31c0.17-0.01,0.33-0.01,0.5-0.02C325.84,42.3,325.68,42.3,325.51,42.31z"/>
					<path class="st3" d="M329.6,41.94c-0.48,0.06-0.95,0.12-1.43,0.17C328.65,42.06,329.12,42,329.6,41.94L329.6,41.94z"/>
				</g>
			</g>
		</g>
		<g>
			<g>
				<g>
					<path d="M470.77,108.02c0.28-0.04,0.57-0.08,0.85-0.12C471.34,107.95,471.06,107.98,470.77,108.02z"/>
					<path d="M464.57,108.75c0.32-0.03,0.63-0.06,0.95-0.09C465.2,108.69,464.88,108.73,464.57,108.75z"/>
					<path d="M474.54,107.46c0.22-0.04,0.45-0.07,0.67-0.11C474.99,107.38,474.77,107.42,474.54,107.46z"/>
					<path d="M467.6,108.44c0.34-0.04,0.69-0.08,1.03-0.13C468.29,108.35,467.95,108.4,467.6,108.44z"/>
					<path d="M545.94,109.76L545.94,109.76c-0.13,0-0.26,0.01-0.38,0.01C545.69,109.77,545.81,109.77,545.94,109.76z"/>
					<path d="M477.55,106.96c0.55-0.09,1.1-0.19,1.65-0.28C478.66,106.77,478.11,106.86,477.55,106.96z"/>
					<path d="M482.17,106.16h-0.01c-0.51,0.09-1.02,0.18-1.53,0.26C481.14,106.34,481.66,106.25,482.17,106.16z"/>
					<path d="M415.1,106.26L415.1,106.26c-0.15,0.02-0.29,0.04-0.43,0.06C414.81,106.3,414.96,106.28,415.1,106.26z"/>
					<path d="M401.46,107.97c0.37-0.04,0.74-0.07,1.11-0.11C402.21,107.9,401.84,107.93,401.46,107.97z"/>
					<path d="M397.94,108.27c0.38-0.03,0.77-0.06,1.15-0.09C398.71,108.2,398.32,108.24,397.94,108.27z"/>
					<path d="M547.25,360.26c-0.05-0.58-0.11-1.16-0.15-1.73c-0.07-1.11-0.09-2.21-0.11-3.31c-0.12-2.83-0.21-5.65-0.22-8.48
						c-6.01-34.05-13.24-67.89-21.66-101.42c8.65,21.44,15.49,43.6,20.43,66.19c0.13-25.24-3.2-50.5-9.82-74.86l10.94,38.31
						l-0.72-164.11H395.81c-0.01-0.02-0.03-0.04-0.04-0.06c0.11,0.27,0.15,0.58,0.07,0.93c-0.6,2.4,0.08,4.78,0.11,7.22
						c0.03,2.36,0.06,4.72,0.07,7.08c0.01,5.12,0.5,10.1,0.08,15.18c-0.46,5.55,0.05,11.4,0.08,16.97
						c0.03,5.93,0.05,11.86,0.06,17.78c0.06,22.33-0.36,44.64-0.6,66.94c17.82-14.07,28.9-36.44,29.05-59.17
						c4.15,10.64,2.07,23.46-5.24,32.24c11.53-11.53,15.92-28.12,21.7-43.36c5.79-15.24,14.88-31.14,30.39-36.17
						c18.57-6.02,39.52,7.52,46.24,25.84c6.72,18.32,1.74,39.22-8.08,56.09c-6.12,10.5-14.1,20.07-18.21,31.51
						c-3.9,10.86-4.06,22.77-7.9,33.64c-8.22,23.21-34.64,38.38-58.83,33.76c27.54,7.5,59.36-11.92,65.28-39.84
						c-4.42,28.25-31.52,51.13-60.11,50.73c18.62,1.4,37.46-6.43,50.37-19.84c-5.18,7.49-10.36,14.99-15.55,22.48
						c-5.38,7.78-11.01,16.45-10.13,25.87s12.22,17.84,19.93,12.35c-5.94,0.59-12.08-2.76-14.78-8.08s-1.81-12.26,2.17-16.71
						c-0.72,6.13,3.63,12.45,9.61,13.98c5.98,1.53,12.83-1.94,15.14-7.66c-4.29,3.19-11.26,1.66-13.83-3.02
						c-2.57-4.69-0.1-11.38,4.9-13.28c6.44,5.39,17.4,3.72,22.13-3.14c-10.25,15.65-15.55,34.43-15.28,53.12
						c0.49-0.01,0.99-0.01,1.48,0c1.16-13.3,5.59-26.32,12.93-37.48c-5.95,11.48-7.62,24.98-5.19,37.67
						c0.58,0.01,1.15,0.05,1.74,0.05c0.59,0,1.19,0.02,1.79,0.03c0.13-0.01,0.26-0.02,0.39-0.03c-0.63-13.28,2.59-26.75,9.48-38.13
						c-4.91,11.85-5.02,25.53-0.7,37.59c0.82-0.06,1.64-0.1,2.47-0.11c-3.64-18.73,0.45-38.98,11.55-54.55
						c-7.05,16.22-3.68,36.45,8.26,49.51c-4.8-12.56-5.16-26.77-1.01-39.56c2.13,14.8,4.26,29.6,6.39,44.4
						c0.73-0.19,1.49-0.35,2.23-0.44c0.56-0.06,1.13-0.07,1.7-0.06c2.88-1.63,6.11-2.65,9.4-2.96c-0.07-0.57-0.14-1.15-0.13-1.74
						c0.01-1.33,0.03-2.67,0.05-4c0.02-1.44,0.03-2.87,0.05-4.31c0-0.15,0.03-0.29,0.03-0.44c-0.01-0.09-0.01-0.17-0.01-0.26
						c-0.02-0.19,0.01-0.34,0.07-0.48c0.03-0.26,0.03-0.53,0.06-0.8c-0.11-2.28-0.21-4.55-0.35-6.83
						C547.28,360.97,547.27,360.62,547.25,360.26z"/>
					<path d="M434.71,106.52c-1.88-0.08-3.76-0.19-5.64-0.28l-0.07,0C430.91,106.34,432.81,106.44,434.71,106.52z"/>
					<path d="M395.52,110.38c0.05,0.05,0.08,0.11,0.12,0.16C395.6,110.49,395.57,110.43,395.52,110.38z"/>
					<path d="M395.16,110.08c0.07,0.04,0.13,0.09,0.19,0.14C395.28,110.17,395.22,110.12,395.16,110.08z"/>
				</g>
			</g>
		</g>
		<g>
			<path class="st0" d="M413.89,338.1c3.51-4.15,5.1-10.15,4.15-15.7s-4.39-10.53-9.03-13.03c-5.67-3.06-13.19-2.84-17.07-8.29
				c-3.68-5.18-2.03-12.59-2.9-19.08c-1.13-8.42-7.25-15.78-14.81-17.83c-7.56-2.05-16.12,1.34-20.72,8.2
				c-2,2.98-3.34,6.57-5.96,8.9c-2.27,2.03-5.23,2.85-7.85,4.3c-6.78,3.74-10.97,11.41-13.82,19.1
				c-8.42,22.72-7.96,49.18,1.24,71.54c-12.73,13.16-16.36,35.67-8.5,52.78c-12.33,18.53-12.84,45.47-1.22,64.54
				c-5.97-17.79-2.75-38.89,8.19-53.61c3.33,7.74,9.64,13.87,17.07,16.58s15.85,1.95,22.77-2.05c4.78-2.76,8.81-6.96,13.8-9.24
				c3.93-1.8,8.25-2.32,12.3-3.78c11.59-4.18,20-16.17,22.52-29.21s-0.29-26.83-5.94-38.64c5.23-3.57,8.89-9.77,9.72-16.44
				c0.83-6.68-1.19-13.71-5.36-18.68"/>
			<path class="st0" d="M421.35,348.87c3.51-4.15,5.1-10.15,4.15-15.7c-0.94-5.55-4.39-10.53-9.03-13.03
				c-5.67-3.06-13.19-2.84-17.07-8.29c-3.68-5.18-2.03-12.59-2.9-19.08c-1.13-8.42-7.25-15.78-14.81-17.83
				c-7.56-2.05-16.12,1.34-20.72,8.2c-2,2.98-3.34,6.57-5.96,8.9c-2.27,2.03-5.23,2.85-7.85,4.3c-6.78,3.74-10.97,11.41-13.82,19.1
				c-8.42,22.72-7.96,49.18,1.24,71.54c-12.73,13.16-16.36,35.67-8.5,52.78c-12.33,18.53-12.84,45.47-1.22,64.54
				c-5.97-17.79-2.75-38.89,8.19-53.61c3.33,7.74,9.64,13.87,17.07,16.58c7.42,2.71,15.85,1.95,22.77-2.05
				c4.78-2.76,8.81-6.96,13.8-9.24c3.93-1.8,8.25-2.32,12.3-3.78c11.59-4.18,20-16.17,22.52-29.21c2.52-13.04-0.29-26.83-5.94-38.64
				c5.23-3.57,8.89-9.77,9.72-16.44c0.83-6.68-1.19-13.71-5.36-18.68"/>
			<path class="st0" d="M428.41,360.28c3.51-4.15,5.1-10.15,4.15-15.7c-0.94-5.55-4.39-10.53-9.03-13.03
				c-5.67-3.06-13.19-2.84-17.07-8.29c-3.68-5.18-2.03-12.59-2.9-19.08c-1.13-8.42-7.25-15.78-14.81-17.83
				c-7.56-2.05-16.12,1.34-20.72,8.2c-2,2.98-3.34,6.57-5.96,8.9c-2.27,2.03-5.23,2.85-7.85,4.3c-6.78,3.74-10.97,11.41-13.82,19.1
				c-8.42,22.72-7.96,49.18,1.24,71.54c-12.73,13.16-16.36,35.67-8.5,52.78c-12.33,18.53-12.84,45.47-1.22,64.54
				c-5.97-17.79-2.75-38.89,8.19-53.61c3.33,7.74,9.64,13.87,17.07,16.58s15.85,1.95,22.77-2.05c4.78-2.76,8.81-6.96,13.8-9.24
				c3.93-1.8,8.25-2.32,12.3-3.78c11.59-4.18,20-16.17,22.52-29.21c2.52-13.04-0.29-26.83-5.94-38.64
				c5.23-3.57,8.89-9.77,9.72-16.44c0.83-6.68-1.19-13.71-5.36-18.68"/>
			<path class="st0" d="M452.53,375.25c3.51-4.15,5.1-10.15,4.15-15.7c-0.94-5.55-4.39-10.53-9.03-13.03
				c-5.67-3.06-13.19-2.84-17.07-8.29c-3.68-5.18-2.03-12.59-2.9-19.08c-1.13-8.42-7.25-15.78-14.81-17.83
				c-7.56-2.05-16.12,1.34-20.72,8.2c-2,2.98-3.34,6.57-5.96,8.9c-2.27,2.03-5.23,2.85-7.85,4.3c-6.78,3.74-10.97,11.41-13.82,19.1
				c-8.42,22.72-7.96,49.18,1.24,71.54c-12.73,13.16-16.36,35.67-8.5,52.78c-12.33,18.53-12.84,45.47-1.22,64.54
				c-5.97-17.79-2.75-38.89,8.19-53.61c3.33,7.74,9.64,13.87,17.07,16.58c7.42,2.71,15.85,1.95,22.77-2.05
				c4.78-2.76,8.81-6.96,13.8-9.24c3.93-1.8,8.25-2.32,12.3-3.78c11.59-4.18,20-16.17,22.52-29.21c2.52-13.04-0.29-26.83-5.94-38.64
				c5.23-3.57,8.89-9.77,9.72-16.44s-1.19-13.71-5.36-18.68"/>
			<g>
				<g>
					<path d="M424.31,351.67c2.21-0.6,5.08-1.81,7.33-0.71c1.18,0.57,1.94,1.71,2.49,2.86c0.79,1.64,1.15,3.34,0.89,5.15
						c-0.15,1.06-0.48,2.08-0.64,3.13c-0.13,0.87-0.2,1.76-0.23,2.64c-0.07,2.09,0.04,4.28,0.68,6.28c0.62,1.93,1.93,3.59,4.15,3.35
						c0.14-0.02,0.79-0.56,0.87-0.5c-2.22-1.66-4.27-3.51-6.45-5.22c-2.17-1.71-4.59-2.91-7.01-4.22c-4.65-2.53-8.64-6-12.87-9.14
						c-1.03-0.77-2.08-1.54-3.18-2.21c-1.05-0.65-2.14-1.21-3.21-1.83c-1-0.58-1.97-1.21-2.84-1.98c-1-0.89-1.89-1.91-2.83-2.86
						c-0.92-0.93-1.87-1.83-2.89-2.65c-0.67-0.54-1.31-1.09-1.9-1.72c-1.31-1.4-2.5-3.02-3.22-4.8c-0.67-1.65-0.79-3.32,0.26-4.83
						c0.23-0.33,0.49-0.63,0.8-0.89c0.07-0.06,0.15-0.12,0.22-0.18c0.59-0.48-0.26,0.11-0.26,0.12c0.09-0.14,0.58-0.25,0.74-0.3
						c0.72-0.22,1.48-0.27,2.23-0.21c3.35,0.26,6.64,2.31,8.82,4.79c2.85,3.23,4.33,7.42,5.51,11.5c1.24,4.31,2.39,8.65,3.7,12.94
						c1.45,4.75,3.1,9.53,5.94,13.65c1.66,2.41,3.54,4.78,5.47,6.98c1.07,1.22,2.21,2.4,3.48,3.41c1.02,0.81,2.22,1.61,3.54,1.81
						c1.04,0.16,2.2-0.26,3-0.94c0.51-0.43,0.2-1.55-0.01-2.12c-0.31-0.87-0.85-1.65-1.44-2.36c-1.24-1.51-2.78-2.74-4.26-4
						c-1.87-1.58-3.71-3.17-5.69-4.62c-2.17-1.59-4.41-3.09-6.66-4.56c-2.3-1.51-4.58-3.05-6.99-4.37c-2.4-1.32-4.86-2.5-7.29-3.76
						c-1.45-0.76-2.93-1.45-4.47-2c-1.42-0.5-3.38-1.19-4.87-0.57c-0.89,0.36-1.83,0.98-2.33,1.81c-1.25,2.03-0.27,4.82,0.58,6.81
						c1.24,2.9,3,5.57,4.84,8.12c1.46,2.03,3.01,3.98,4.6,5.91c1.37,1.68,2.76,3.35,4.22,4.94c1.69,1.84,3.62,3.45,5.31,5.28
						c1.4,1.51,2.72,3.23,4.72,3.94c0.06,0.02,0.87-0.47,0.87-0.5c-0.06-1.49-1.62-2.37-2.69-3.14c-1.56-1.12-2.85-2.6-4.28-3.88
						c-2.18-1.95-4.56-3.59-7.14-4.96c-1.89-1.01-3.94-2.01-6.09-2.32c-0.78-0.11-1.62-0.13-2.35,0.22
						c-0.67,0.32-1.43,0.72-1.79,1.41c-0.51,0.96-0.39,2.19-0.21,3.21c0.26,1.45,0.85,2.79,1.7,3.98c1.83,2.57,4.58,4.41,7.31,5.9
						c1.39,0.76,2.82,1.44,4.27,2.08c1.58,0.7,3.17,1.47,4.8,2.02c0.99,0.34,2.04,0.53,3.07,0.29c0.69-0.16,1.29-0.52,1.9-0.87
						c0.6-0.35,1.18-0.75,1.61-1.31c0.36-0.46,0.94-1.73,0.29-2.2c-0.56-0.41-1.55,0.28-1.96,0.58c-0.64,0.48-0.8,1.41-0.87,2.16
						c-0.2,2.04,0.13,4.54,1.19,6.32c0.18,0.3,0.39,0.59,0.69,0.8c0.12,0.08,0.76-0.58,0.87-0.5c-4.54-3.29-8.83-7.02-14.01-9.31
						c-1.3-0.57-2.64-1.04-3.97-1.51c-1.22-0.43-2.25-0.38-3.39,0.24c-0.71,0.39-1.5,0.79-2.01,1.43c-0.61,0.76-0.65,1.71-0.39,2.62
						c0.28,0.99,0.83,1.89,1.35,2.77c0.72,1.23,1.49,2.43,2.31,3.59c1.67,2.35,3.56,4.55,5.57,6.63c4.05,4.18,8.58,7.88,13.16,11.45
						c2.77,2.16,5.6,4.25,8.6,6.08c1.42,0.87,2.89,1.82,4.51,2.26c1.67,0.46,3.41,0.52,4.99,1.27c0.05,0.02,0.87-0.47,0.87-0.5
						c-0.06-1.64-1.27-3.18-2.23-4.42c-1.08-1.39-2.29-2.66-3.44-3.97c-1.61-1.83-3.25-3.58-5.07-5.2
						c-1.94-1.73-3.99-3.32-6.09-4.86c-4.18-3.06-8.42-5.93-13.14-8.09c-2.38-1.09-4.83-2.03-7.33-2.79
						c-1.86-0.56-3.82-1.16-5.77-1.3c-1.57-0.11-2.9,0.29-4.19,1.17c-1.65,1.12-1.89,3.25-1.6,5.07c0.7,4.47,3.68,8.46,6.58,11.77
						c1.7,1.93,3.53,3.75,5.36,5.55c1.89,1.87,3.77,3.76,5.7,5.59c3.77,3.57,7.77,6.79,11.97,9.82c2.96,2.14,5.51,4.83,8.75,6.58
						c1.3,0.7,2.68,1.22,4.17,0.94c0.85-0.16,1.74-0.57,2.4-1.12c1.35-1.11,0.16-3.11-0.58-4.21c-1.42-2.11-3.29-3.92-5.15-5.64
						c-3.87-3.57-8.07-6.56-12.45-9.47c-4.15-2.76-8.46-5.37-13.1-7.23c-2.31-0.92-4.7-1.66-7.15-2.09
						c-1.85-0.32-3.95-0.68-5.8-0.13c-0.98,0.29-2.08,0.9-2.79,1.63c-0.81,0.84-1.2,1.99-1.34,3.13c-0.36,2.79,0.41,5.72,1.3,8.35
						c1.15,3.39,2.76,6.49,5.17,9.16c1.63,1.81,3.48,3.42,5.31,5.02c1.41,1.23,2.8,2.5,4.31,3.61c1.36,1,3.02,2.18,4.78,2.22
						c0.13,0,0.81-0.56,0.87-0.5c-0.56-0.55-1.25-0.91-1.96-1.25c-0.8-0.39-1.54-0.8-2.25-1.34c-1.24-0.95-2.43-1.99-3.82-2.72
						c-2.61-1.36-5.84-1.62-8.47-0.17c-1,0.55-1.95,1.14-2.72,2c-1.04,1.16-1.72,2.64-2.15,4.12c-0.78,2.66-0.48,5.43,0.85,7.86
						c1.35,2.47,3.5,4.44,5.77,6.07c2.42,1.75,5.13,3.34,7.9,4.47c1.48,0.61,3.04,0.92,4.62,0.51c1.22-0.32,2.36-0.99,3.42-1.67
						c1.03-0.66,1.95-1.48,2.53-2.56c0.64-1.19,0.85-2.57,0.94-3.91c0.19-2.89-1.25-5.83-2.84-8.15c-1.61-2.35-3.99-4.89-6.97-5.28
						c-0.27-0.04-0.61,0.53-0.87,0.5c2.39,0.31,4.39,2.06,5.88,3.85c1.66,1.98,3,4.36,3.64,6.87c0.56,2.2,0.39,4.9-0.8,6.88
						c-1.49,2.47-4.55,3.67-7.32,2.93c-1.51-0.4-2.91-1.15-4.28-1.88c-1.2-0.64-2.37-1.31-3.51-2.05c-2.16-1.39-4.23-3.01-5.86-5.02
						c-1.56-1.92-2.63-4.23-2.69-6.74c-0.06-2.72,0.99-5.78,2.97-7.69c0.25-0.24,0.52-0.47,0.81-0.68c0.83-0.6-0.6,0.23,0.33-0.2
						c0.21-0.1,0.42-0.19,0.64-0.26c0.67-0.24,1.37-0.38,2.08-0.43c1.66-0.11,3.37,0.25,4.87,0.96c1.48,0.7,2.72,1.77,4,2.76
						c0.71,0.55,1.43,0.99,2.23,1.39c0.76,0.37,1.53,0.74,2.14,1.34c0.29-0.17,0.58-0.33,0.87-0.5c-1.73-0.04-3.36-1.18-4.7-2.16
						c-1.45-1.06-2.78-2.26-4.13-3.45c-3.51-3.08-7.09-6.2-9.15-10.49c-1.11-2.31-1.98-4.78-2.52-7.29c-0.5-2.33-0.89-5.26,0.43-7.4
						c0.29-0.48,0.67-0.82,1.09-1.18c0.47-0.4-0.32,0.19-0.31,0.16c0.01-0.03,0.22-0.11,0.28-0.13c0.14-0.06,0.29-0.11,0.43-0.16
						c0.32-0.1,0.64-0.17,0.97-0.22c2-0.29,4.17,0.13,6.13,0.55c4.74,1.02,9.2,3.11,13.38,5.53c4.02,2.33,7.88,4.96,11.65,7.66
						c1.2,0.86,2.35,1.8,3.48,2.75c1.93,1.62,3.82,3.3,5.56,5.13c1.39,1.46,3.03,3.18,3.63,5.16c0.18,0.61,0.24,1.31-0.16,1.86
						c-0.09,0.12-0.2,0.21-0.31,0.32c-0.33,0.35,0.81-0.35,0.35-0.18c-0.11,0.04-0.22,0.09-0.33,0.13
						c-0.49,0.17-1.03,0.26-1.55,0.27c-1.55,0.02-3.05-0.83-4.32-1.63c-1.61-1.01-3.09-2.21-4.55-3.42c-3.23-2.67-6.7-5.01-9.91-7.7
						c-3.88-3.25-7.45-6.82-11.04-10.37c-3.49-3.44-7.03-6.96-9.53-11.22c-0.99-1.69-1.82-3.53-2.22-5.45
						c-0.37-1.79-0.37-3.94,1.06-5.29c0.07-0.07,0.18-0.13,0.24-0.2c0.13-0.2-0.31,0.08-0.08,0.04c0.19-0.04,0.39-0.15,0.58-0.2
						c0.41-0.11,0.83-0.16,1.25-0.17c0.9-0.03,1.8,0.1,2.67,0.28c2.06,0.42,4.1,1.03,6.08,1.71c4.73,1.64,9.3,3.87,13.43,6.7
						c4.13,2.83,8.24,5.75,11.92,9.16c1.6,1.49,3.03,3.11,4.48,4.73c1.17,1.31,2.37,2.6,3.43,4c0.87,1.15,1.91,2.56,1.97,4.07
						c0.29-0.17,0.58-0.33,0.87-0.5c-1.33-0.63-2.76-0.79-4.19-1.09c-1.49-0.31-2.76-0.96-4.07-1.71c-2.55-1.46-4.98-3.15-7.34-4.9
						c-4.52-3.37-8.95-6.93-13.05-10.8c-4.03-3.8-7.69-7.99-10.49-12.79c-0.85-1.46-2.21-3.54-1.09-5.2
						c0.14-0.21,0.3-0.39,0.49-0.56c0.09-0.08,0.19-0.16,0.29-0.23c-0.3,0.24,0.23-0.12,0.3-0.14c0.57-0.23,1.17-0.3,1.77-0.2
						c0.56,0.1,1.09,0.32,1.62,0.52c0.68,0.26,1.37,0.48,2.05,0.74c5.72,2.22,10.36,6.28,15.27,9.84c0.29-0.17,0.58-0.33,0.87-0.5
						c-0.61-0.42-0.94-1.21-1.18-1.88c-0.35-0.98-0.56-2.01-0.66-3.04c-0.1-0.97-0.13-1.98,0.08-2.93c0.08-0.35,0.18-0.7,0.37-1
						c0.08-0.13,0.2-0.22,0.28-0.34c0.22-0.32-0.9,0.32-0.52,0.29c0.09-0.01,0.18-0.05,0.27-0.06c0.14-0.01,0.33-0.01,0.46,0.05
						c0.29,0.13,0.36,0.45,0.38,0.77c0.05,0.81-0.5,1.52-1.07,2.03c-1.53,1.36-3.81,0.59-5.46-0.1c-2.66-1.12-5.32-2.24-7.86-3.62
						c-2.54-1.38-5.05-3.03-6.89-5.29c-1.52-1.87-2.75-4.57-2.27-7.04c0.07-0.36,0.19-0.73,0.41-1.03c0.09-0.14,0.21-0.24,0.32-0.37
						c0.05-0.06,0.14-0.09,0.18-0.15c-0.63,0.34-0.78,0.43-0.45,0.27c0.05-0.02,0.1-0.04,0.15-0.06c0.71-0.25,1.5-0.2,2.23-0.08
						c1.97,0.33,3.86,1.22,5.61,2.13c2.59,1.35,5,2.96,7.19,4.89c1.48,1.31,2.81,2.85,4.4,4.01c1.1,0.8,2.76,1.7,2.83,3.24
						c0.29-0.17,0.58-0.33,0.87-0.5c-2.07-0.74-3.41-2.54-4.85-4.09c-1.66-1.77-3.53-3.34-5.18-5.14c-2.15-2.34-4.17-4.82-6.15-7.32
						c-1.87-2.36-3.65-4.78-5.23-7.35c-1.47-2.39-2.98-5.06-3.36-7.88c-0.14-1.02-0.1-2.11,0.39-3.04c0.23-0.44,0.56-0.82,0.96-1.13
						c0.04-0.03,0.22-0.16,0.22-0.16c0.06,0.1-0.77,0.29-0.37,0.25c0.13-0.01,0.27-0.08,0.4-0.11c0.37-0.07,0.75-0.07,1.13-0.05
						c1.8,0.12,3.57,0.83,5.2,1.55c1.76,0.77,3.44,1.7,5.16,2.57c2.4,1.21,4.81,2.42,7.1,3.84c2.29,1.41,4.53,2.93,6.76,4.42
						c2.2,1.47,4.38,2.99,6.46,4.63c1.7,1.34,3.33,2.78,4.97,4.19c1.46,1.25,2.97,2.6,3.93,4.29c0.42,0.73,0.72,1.56,0.69,2.42
						c-0.01,0.15-0.08,0.36-0.06,0.51c-0.03,0.02-0.06,0.04-0.09,0.06c0.11-0.06,0.22-0.13,0.33-0.19
						c-0.02-0.01-0.15,0.07-0.18,0.07c-0.29,0.08-0.56,0.15-0.87,0.17c-1.24,0.05-2.44-0.59-3.43-1.28c-1.29-0.89-2.43-2-3.49-3.14
						c-1.83-1.97-3.4-4.15-5.07-6.26c-3.1-3.91-4.97-8.55-6.48-13.26c-1.38-4.3-2.6-8.64-3.78-13c-1.11-4.1-2.36-8.31-4.81-11.84
						c-1.99-2.86-4.89-5.09-8.27-6.03c-1.5-0.41-3.19-0.55-4.63,0.14c-1.24,0.6-2.33,1.38-2.97,2.63c-0.8,1.56-0.32,3.33,0.4,4.82
						c0.83,1.72,2.03,3.29,3.39,4.63c0.66,0.65,1.4,1.2,2.1,1.8c0.98,0.85,1.9,1.76,2.81,2.69c0.89,0.92,1.75,1.89,2.75,2.69
						c0.9,0.72,1.9,1.31,2.9,1.88c2.2,1.24,4.28,2.56,6.3,4.08c2.09,1.57,4.13,3.22,6.23,4.79c2.1,1.56,4.28,3,6.6,4.23
						c2.36,1.26,4.67,2.47,6.77,4.14c2.1,1.67,4.1,3.45,6.25,5.06c0.29-0.17,0.58-0.33,0.87-0.5c-4.43,0.49-4.86-5.82-4.85-8.87
						c0.01-1.79,0.23-3.51,0.63-5.24c0.4-1.72,0.48-3.41-0.09-5.1c-0.46-1.37-1.18-2.87-2.36-3.78c-2.28-1.76-5.58-0.37-8.01,0.29
						C424.86,351.26,424.61,351.59,424.31,351.67L424.31,351.67z"/>
				</g>
			</g>
			<g>
				<g>
					<path d="M488.62,525c0.04,0,0.04-5,0-5C488.58,520,488.58,525,488.62,525L488.62,525z"/>
				</g>
			</g>
			<path class="st0" d="M519.08,425.59c3.51-4.15,5.1-10.15,4.15-15.7s-4.39-10.53-9.03-13.03c-5.67-3.06-13.19-2.84-17.07-8.29
				c-3.68-5.18-2.03-12.59-2.9-19.08c-1.13-8.42-7.25-15.78-14.81-17.83c-7.56-2.05-16.12,1.34-20.72,8.2
				c-2,2.98-3.34,6.57-5.96,8.9c-2.27,2.03-5.23,2.85-7.85,4.3c-6.78,3.74-10.97,11.41-13.82,19.1
				c-8.42,22.72-7.96,49.18,1.24,71.54c-12.73,13.16-16.36,35.67-8.5,52.78c-12.33,18.53-12.84,45.47-1.22,64.54
				c-5.97-17.79-2.75-38.89,8.19-53.61c3.33,7.74,9.64,13.87,17.07,16.58c7.42,2.71,15.85,1.95,22.77-2.05
				c4.78-2.76,8.81-6.96,13.8-9.24c3.93-1.8,8.25-2.32,12.3-3.78c11.59-4.18,20-16.17,22.52-29.21c2.52-13.04-0.29-26.83-5.94-38.64
				c5.23-3.57,8.89-9.77,9.72-16.44c0.83-6.68-1.19-13.71-5.36-18.68"/>
			<g>
				<g>
					<path d="M492.52,402.56c2.48,2.59,5.08,5.08,7.26,7.94c1.13,1.47,2.18,3.05,2.88,4.78c0.53,1.31,1.18,3.4,0.39,4.73
						c-0.01,0.02-0.27,0.37-0.28,0.35c-0.08-0.13,0.71-0.19,0.46-0.26c-0.05-0.01-0.15,0.05-0.21,0.06
						c-0.31,0.04-0.59,0.04-0.9-0.01c-0.74-0.12-1.44-0.44-2.11-0.76c-2.01-0.97-3.82-2.31-5.54-3.73c-1.81-1.5-3.52-3.1-5.28-4.66
						c-1.42-1.26-2.9-2.44-4.32-3.7c-1.73-1.54-3.41-3.16-4.88-4.95c-1.31-1.59-2.53-3.37-3.02-5.4c-0.29,0.17-0.58,0.33-0.87,0.5
						c0.77,0.73,1.64,1.32,2.47,1.98c0.84,0.66,1.57,1.43,2.2,2.3c1.25,1.71,2.13,3.64,3.02,5.55c0.42,0.9,0.84,1.81,1.32,2.68
						c0.37,0.67,0.85,1.29,1.15,2c0.25,0.58,0.27,1.15-0.1,1.69c-0.05,0.08-0.85,0.87-0.87,0.83c-0.09-0.16,0.52-0.19,0.15-0.11
						c-0.07,0.02-0.15,0.05-0.22,0.07c-0.21,0.06-0.42,0.1-0.64,0.13c-1.66,0.22-3.41-0.18-5-0.63c-1.7-0.47-3.23-1.24-4.54-2.43
						c-1.34-1.21-2.39-2.69-3.55-4.07c-1.36-1.61-3.14-2.72-4.8-3.99c-2.6-2-4.41-4.74-5.86-7.65c-0.78-1.55-1.44-3.18-1.88-4.86
						c-0.35-1.38-0.63-2.94-0.25-4.35c0.09-0.35,0.24-0.69,0.45-0.99c0.11-0.15,0.23-0.26,0.35-0.39c0.03-0.03,0.17-0.11,0.17-0.14
						c-0.02,0.11-0.58,0.23-0.21,0.15c0.81-0.18,1.51-0.26,2.34-0.11c0.74,0.14,1.48,0.39,2.02,0.93c0.47,0.47,0.75,1.1,1.05,1.68
						c1.01,2,2.12,3.94,3.05,5.99c0.97,2.13,1.87,4.28,2.84,6.41c0.96,2.09,2,4.12,2.9,6.24c0.85,2.01,1.66,4.03,2.7,5.95
						c0.97,1.8,2.32,3.31,3.34,5.07c0.98,1.69,1.74,3.49,2.81,5.13c0.53,0.81,1.13,1.57,1.84,2.23c0.07,0.07,0.81-0.56,0.87-0.5
						c-1.6-1.64-3.2-3.3-4.93-4.81c-1.62-1.42-3.41-2.83-5.4-3.7c-0.81-0.35-1.57-0.4-2.34,0.03c-0.54,0.3-1.15,0.6-1.52,1.12
						c-0.84,1.18-0.01,2.89,0.59,3.98c0.7,1.26,1.62,2.33,2.5,3.46c1.16,1.49,2.18,3.1,3.55,4.41c1.18,1.14,2.76,2.1,4.46,1.98
						c0.94-0.07,1.95-0.6,2.66-1.21c1.69-1.43,1.63-4.91-0.97-5.2c-0.1-0.01-0.84,0.41-0.87,0.5c-1.39,4.01,2.17,7.36,4.04,10.54
						c1.81,3.07,5.62,6.58,4.32,10.51c0.29-0.17,0.58-0.33,0.87-0.5c-1.68,0.16-3.27-1.41-4.47-2.38c-1.79-1.44-3.78-2.64-5.69-3.9
						c-2.06-1.37-4.06-2.78-6.01-4.29c-1.9-1.48-3.81-2.96-5.91-4.16c-0.29,0.17-0.58,0.33-0.87,0.5c1.88,0.82,3.54,2,5.05,3.39
						c1.59,1.45,3.03,3,4.75,4.31c3.11,2.37,6.39,4.44,9.01,7.38c1.18,1.32,2.29,2.81,2.88,4.51c0.26,0.74,0.41,1.55,0.34,2.34
						c-0.03,0.28-0.08,0.56-0.2,0.81c-0.08,0.17-0.41,0.43-0.44,0.57c-0.05,0.26,0.42-0.43,0.48-0.28c0,0-0.17,0.06-0.19,0.06
						c-0.1,0.01-0.2,0.05-0.31,0.06c-0.29,0.04-0.58,0.02-0.86-0.02c-0.59-0.08-1.17-0.27-1.73-0.5c-1.07-0.44-2.12-1.03-3.01-1.76
						c-1.63-1.34-2.71-3.22-4.29-4.61c-0.89-0.78-1.89-1.32-3.03-1.63c-1.25-0.33-2.52-0.48-3.69-1.06
						c-0.05-0.03-0.84,0.43-0.87,0.5c-1,2.84,1.68,5.9,3.42,7.83c2.28,2.55,4.77,5.02,7.45,7.14c2.03,1.6,4.13,3.11,6.03,4.86
						c0.06,0.06,0.83-0.55,0.87-0.5c-1.23-1.58-3.3-1.85-4.93-2.83c-1.03-0.62-1.99-1.37-2.99-2.05c-1.05-0.71-2.1-1.43-3.13-2.17
						c-2.04-1.47-3.97-3.08-6.04-4.51c-2.02-1.4-4.13-2.67-6.32-3.78c-2.08-1.06-4.23-2.02-6.1-3.44c-2.05-1.55-3.84-3.54-5.64-5.37
						c-2.52-2.57-5.08-5.2-7-8.26c-0.89-1.41-1.69-2.98-1.93-4.65c-0.1-0.71-0.09-1.43,0.11-2.12c0.24-0.82,0.74-1.38,1.29-2.01
						c0.1-0.11,0.28-0.11-0.04-0.01c0.08-0.03,0.15-0.06,0.23-0.08c0.22-0.06,0.42-0.12,0.64-0.16c0.46-0.08,0.92-0.09,1.38-0.08
						c0.94,0.03,1.86,0.22,2.7,0.65c1.5,0.77,2.52,2.15,3.43,3.52c1.13,1.71,2.26,3.37,3.54,4.97c1.43,1.79,2.89,3.56,4.08,5.52
						c1.34,2.21,2.23,4.67,3.19,7.06c0.99,2.46,1.94,4.94,3.1,7.32c2.16,4.47,4.99,8.64,8.21,12.41c1.12,1.31,2.24,2.61,3.39,3.89
						c1.2,1.33,2.46,2.69,3.97,3.68c0.56,0.37,1.17,0.68,1.84,0.78c0.11,0.02,0.83-0.55,0.87-0.5c-0.65-0.82-1.64-1.32-2.55-1.78
						c-1.01-0.51-2.07-0.94-3.06-1.5c-1.13-0.64-2.16-1.44-3.3-2.08c-1.22-0.69-2.5-1.26-3.85-1.65c-0.92-0.26-1.97-0.53-2.93-0.33
						c-0.54,0.12-1.11,0.46-1.55,0.78c-1.03,0.75-0.72,2.26-0.41,3.3c0.45,1.52,1.2,2.96,2.02,4.31c1.09,1.81,2.36,3.53,3.8,5.08
						c1.61,1.72,3.55,3.31,5.84,4.01c1.09,0.33,2.28,0.46,3.4,0.26c0.72-0.13,1.32-0.46,1.95-0.83c3.34-1.98,1.28-7.02-0.82-9.18
						c-0.02-0.02-0.87,0.49-0.87,0.5c1.23,3.44,1.79,7.05,2.75,10.56c0.97,3.55,2.52,6.83,5.18,9.43c0.07,0.06,0.81-0.55,0.87-0.5
						c-1.68-1.75-3.67-3.26-5.64-4.65c-2.39-1.69-5.06-3.44-7.95-4.12c-1.9-0.45-4.33,0.05-5.23,2c-1.42,3.05,2.06,5.34,4.32,6.58
						c1.35,0.74,2.78,1.32,4.15,2.02c2.57,1.3,4.78,3.19,7.32,4.55c0.16,0.09,0.72-0.58,0.87-0.5c-3.43-1.9-6.5-4.58-10.22-5.93
						c-1.31-0.47-2.7-0.85-4.09-0.93c-1.15-0.07-2.05,0.22-3,0.84c-1.8,1.16-0.95,3.59,0.09,4.93c1.53,1.97,3.74,3.42,5.84,4.7
						c2.01,1.22,4.11,2.25,6.18,3.34c0.14,0.08,0.75-0.58,0.87-0.5c-1.64-1.2-3.9-0.47-5.22,0.9c-2.11,2.19-0.16,5.28,0.51,7.64
						c0.29-0.17,0.58-0.33,0.87-0.5c-1.14-1.47-2.46-2.77-4.03-3.78c-1.52-0.98-3.19-1.67-4.88-2.28c-2.64-0.95-5.39-2.15-8.22-2.36
						c-1.87-0.14-4.93,0.75-4.55,3.16c0.21,1.31,0.94,2.54,1.65,3.64c0.77,1.2,1.65,2.34,2.61,3.41c2.52,2.82,6.47,3.86,8.83,6.83
						c0.04,0.04,0.84-0.53,0.87-0.5c-2.15-2.7-5.64-3.65-8.06-6.01c-1.79-1.76-3.46-3.93-4.49-6.22c-0.39-0.86-0.85-2.03-0.41-2.96
						c0.11-0.23,0.28-0.4,0.44-0.59c0.3-0.35,0.02,0.11-0.17,0.04c0.06,0.02,0.39-0.14,0.47-0.17c0.61-0.17,1.26-0.18,1.88-0.14
						c2.6,0.17,5.07,1.24,7.5,2.08c1.85,0.64,3.7,1.34,5.37,2.37c1.69,1.04,3.12,2.4,4.33,3.97c0,0,0.87-0.47,0.87-0.5
						c-0.58-2.04-2.02-4.27-1.24-6.45c0.17-0.47,0.44-0.9,0.79-1.25c0.08-0.08,0.17-0.16,0.26-0.23c0.22-0.16,0.18-0.14-0.13,0.05
						c0-0.07,0.58-0.2,0.65-0.22c0.94-0.21,1.87,0,2.64,0.56c0.29-0.17,0.58-0.33,0.87-0.5c-3.78-2-7.82-3.84-10.94-6.86
						c-1.25-1.21-2.69-2.99-2.08-4.85c0.06-0.2,0.15-0.39,0.25-0.57c0.1-0.17,0.4-0.4,0.45-0.56c-0.07,0.2-0.75,0.29-0.23,0.18
						c0.13-0.03,0.25-0.07,0.38-0.09c0.31-0.06,0.62-0.08,0.94-0.07c1.36,0.01,2.74,0.36,4.02,0.78c3.91,1.3,7.11,4.11,10.68,6.09
						c0.29-0.17,0.58-0.33,0.87-0.5c-2.2-1.18-4.16-2.74-6.32-4c-1.19-0.7-2.47-1.22-3.71-1.83c-1.36-0.66-2.71-1.38-3.9-2.33
						c-1.02-0.81-2.03-1.89-2.18-3.24c-0.07-0.63,0.07-1.28,0.36-1.84c0.1-0.2,0.22-0.39,0.36-0.57c0.13-0.16,0.42-0.32,0.51-0.49
						c-0.21,0.38-0.6,0.26-0.18,0.14c0.1-0.03,0.2-0.06,0.3-0.09c0.24-0.06,0.49-0.09,0.74-0.1c0.54-0.02,1.09,0.05,1.62,0.17
						c2.73,0.6,5.25,2.21,7.53,3.77c2.17,1.49,4.35,3.12,6.18,5.03c0.29-0.17,0.58-0.33,0.87-0.5c-2.66-2.61-4.2-5.88-5.18-9.43
						c-0.96-3.51-1.52-7.12-2.75-10.56c-0.29,0.17-0.58,0.33-0.87,0.5c1.06,1.09,1.82,2.49,2.24,3.94c0.38,1.32,0.55,2.92-0.21,4.14
						c-0.17,0.28-0.39,0.52-0.65,0.73c-0.12,0.09-0.43,0.35-0.03,0.04c0.35-0.27,0.17-0.09,0.02-0.05c-0.21,0.06-0.4,0.13-0.62,0.18
						c-0.98,0.21-2.04,0.15-3.01-0.08c-2.13-0.5-3.98-1.82-5.54-3.31c-2.54-2.43-4.73-5.53-6.12-8.77
						c-0.48-1.12-1.05-2.54-0.76-3.78c0.05-0.23,0.15-0.46,0.29-0.65c0.06-0.08,0.18-0.16,0.23-0.24c-0.12,0.2-0.72,0.3-0.17,0.16
						c0.8-0.21,1.68-0.04,2.47,0.15c1.44,0.35,2.82,0.92,4.12,1.63c1.2,0.65,2.28,1.47,3.46,2.16c1,0.58,2.08,1.02,3.11,1.54
						c0.95,0.47,1.97,0.98,2.64,1.83c0.29-0.17,0.58-0.33,0.87-0.5c-1.54-0.23-2.87-1.48-3.95-2.52c-1.31-1.26-2.49-2.65-3.68-4.04
						c-3.16-3.69-6.11-7.46-8.48-11.72c-2.6-4.69-4.2-9.83-6.42-14.7c-1.95-4.26-5.44-7.51-7.96-11.4
						c-0.94-1.46-1.85-3.02-3.22-4.12c-1.44-1.15-3.39-1.56-5.19-1.22c-1.32,0.25-2.71,1.19-3.38,2.35
						c-0.78,1.34-0.64,2.95-0.17,4.38c1.06,3.27,3.47,6.09,5.76,8.58c1.58,1.72,3.22,3.38,4.88,5.02c1.81,1.79,3.59,3.5,5.82,4.77
						c2.16,1.23,4.44,2.21,6.58,3.46c2.19,1.28,4.28,2.72,6.3,4.25c2.07,1.57,4.13,3.13,6.29,4.6c1.04,0.71,2.05,1.48,3.12,2.14
						c0.84,0.52,1.78,0.83,2.68,1.22c0.9,0.39,1.72,0.87,2.33,1.66c0.29-0.17,0.58-0.33,0.87-0.5c-3.24-2.99-7-5.33-10.08-8.5
						c-2.12-2.17-4.42-4.25-5.96-6.9c-0.77-1.32-1.39-2.92-0.85-4.44c-0.29,0.17-0.58,0.33-0.87,0.5c1.06,0.53,2.2,0.71,3.34,0.97
						c1.1,0.26,2.1,0.68,2.99,1.38c1.57,1.23,2.63,2.97,4.05,4.36c0.94,0.92,2.06,1.63,3.26,2.17c1,0.46,2.38,0.99,3.48,0.56
						c0.95-0.38,1.75-0.96,1.88-2.03c0.2-1.73-0.65-3.46-1.58-4.85c-2.2-3.29-5.42-5.68-8.6-7.95c-1.04-0.75-2.08-1.5-3.07-2.31
						c-1.01-0.82-1.9-1.74-2.83-2.65c-1.75-1.72-3.68-3.25-5.94-4.23c-0.17-0.07-0.72,0.58-0.87,0.5c2.1,1.2,4,2.68,5.91,4.16
						c1.95,1.52,3.95,2.93,6.01,4.29c1.91,1.27,3.9,2.46,5.69,3.9c1.2,0.97,2.8,2.53,4.47,2.38c0.12-0.01,0.83-0.4,0.87-0.5
						c1.3-3.93-2.52-7.43-4.32-10.51c-1.87-3.17-5.43-6.53-4.04-10.54c-0.29,0.17-0.58,0.33-0.87,0.5c1.4,0.16,2.19,1.36,2.14,2.72
						c-0.03,0.69-0.25,1.38-0.66,1.94c-0.18,0.25-0.52,0.43-0.67,0.68c0.24-0.4,0.71-0.33,0.18-0.13c-0.07,0.03-0.15,0.05-0.22,0.07
						c-0.22,0.06-0.44,0.1-0.66,0.12c-2.36,0.21-4.31-1.57-5.7-3.26c-0.8-0.96-1.51-1.99-2.27-2.99c-0.58-0.75-1.2-1.46-1.75-2.23
						c-1.14-1.62-2.94-4.5-0.75-6.01c-0.27,0.16-0.54,0.31-0.81,0.47c1.14-0.64,2.3,0.03,3.31,0.61c1.17,0.67,2.27,1.44,3.32,2.3
						c2.12,1.72,4.01,3.7,5.92,5.65c0.29-0.17,0.58-0.33,0.87-0.5c-1.51-1.42-2.49-3.24-3.42-5.06c-0.46-0.9-0.92-1.8-1.44-2.66
						c-0.56-0.93-1.26-1.75-1.87-2.64c-2.58-3.79-3.95-8.3-5.96-12.39c-2.2-4.46-3.95-9.11-6.36-13.47
						c-0.75-1.36-1.21-2.74-2.83-3.24c-0.81-0.25-1.72-0.37-2.55-0.19c-0.57,0.12-1.06,0.43-1.55,0.72
						c-2.79,1.66-1.29,6.12-0.38,8.48c1.19,3.1,2.92,6.31,5.27,8.7c1.47,1.5,3.32,2.55,4.92,3.89c1.56,1.31,2.69,3.02,4.05,4.53
						c1.27,1.4,2.74,2.55,4.53,3.2c1.61,0.59,3.41,1,5.13,1.02c1.39,0.02,2.6-0.48,3.67-1.34c0.55-0.44,1.01-1.02,0.89-1.77
						c-0.12-0.73-0.62-1.38-1-1.99c-2.24-3.69-3.27-8.22-6.78-11.02c-0.86-0.68-1.77-1.29-2.56-2.05c-0.02-0.02-0.87,0.48-0.87,0.5
						c0.45,1.86,1.53,3.52,2.7,5c1.34,1.69,2.87,3.22,4.46,4.68c1.45,1.33,2.98,2.56,4.46,3.84c1.85,1.61,3.63,3.3,5.51,4.87
						c1.8,1.51,3.7,2.96,5.83,3.99c1.16,0.56,2.53,1.21,3.75,0.52c0.51-0.29,0.98-0.52,1.22-1.09c0.32-0.78,0.23-1.73,0.08-2.54
						c-0.33-1.81-1.23-3.48-2.23-5c-2.37-3.61-5.53-6.58-8.5-9.68C493.32,402,492.57,402.62,492.52,402.56L492.52,402.56z"/>
				</g>
			</g>
			<g>
				<g>
					<path d="M503.13,468.11c-0.76-0.26-1.75-0.6-2.56-0.34c-0.39,0.12-0.77,0.38-1.11,0.61c-0.18,0.12-0.3,0.27-0.37,0.47
						c-0.16,0.53,0.1,1.13,0.34,1.58c0.36,0.67,0.85,1.26,1.41,1.78c0.66,0.61,1.42,1.14,2.28,1.42c0.07,0.02,0.37-0.21,0.44-0.25
						c0.13-0.08,0.32-0.14,0.43-0.25c0.93-0.94,1.39-2.33,1.49-3.63c0.1-1.3-0.18-2.74-1.27-3.56c-0.03-0.02-0.39,0.22-0.44,0.25
						c-0.04,0.02-0.4,0.27-0.43,0.25c1.09,0.82,1.37,2.27,1.27,3.56c-0.1,1.3-0.56,2.69-1.49,3.63c0.29-0.17,0.58-0.33,0.87-0.5
						c-1.36-0.45-2.54-1.49-3.34-2.65c-0.33-0.47-0.64-1.02-0.71-1.6c-0.03-0.21-0.02-0.42,0.06-0.62c0.03-0.08,0.08-0.16,0.14-0.23
						c0.03-0.04,0.07-0.06,0.1-0.1c0.21-0.24-1.03,0.47-0.58,0.35c0.86-0.24,1.79,0.05,2.6,0.33c0.07,0.02,0.37-0.21,0.44-0.25
						C502.76,468.33,503.06,468.09,503.13,468.11L503.13,468.11z"/>
				</g>
			</g>
		</g>
	</g>
</g>
<g id="Layer_5">
</g>
</svg>
