<?xml version="1.0" encoding="utf-8"?>
<!-- Generator: Adobe Adobe Illustrator 24.2.0, SVG Export Plug-In . SVG Version: 6.00 Build 0)  -->
<svg version="1.1" xmlns="http://www.w3.org/2000/svg" xmlns:xlink="http://www.w3.org/1999/xlink" x="0px" y="0px"
	 viewBox="0 0 620.71 620.71" style="enable-background:new 0 0 620.71 620.71;" xml:space="preserve">
<style type="text/css">
	.st0{fill:#FFFFFF;stroke:#000000;stroke-miterlimit:10;}
	.st1{fill:#FFFFFF;}
	.st2{fill:none;stroke:#000000;stroke-miterlimit:10;}
	.st3{stroke:#FFFFFF;stroke-miterlimit:10;}
	.st4{fill:#F2F2F2;}
	.st5{fill:#F2F2F2;stroke:#000000;stroke-miterlimit:10;}
	.st6{fill:#F4F4F4;stroke:#000000;stroke-miterlimit:10;}
	.st7{stroke:#000000;stroke-miterlimit:10;}
</style>
<g id="Layer_1">
	<rect x="-8.53" y="-14.88" class="st4" width="642" height="650"/>
</g>
<g id="Layer_2">
	<g>
		<g>
			<path class="st3" d="M219.81,246.16c8.04-2.58,10.97-14.57,5.01-20.56c-9.13-5.23-15.78-1.63-19.92,2.35
				c-4.13,3.98-9.19,8.81-14.7,7.19c-2.53-0.75-4.47-2.76-6.83-3.92c-6.11-3-14.54,1.38-15.58,8.11c-1.19-3.12-4.12-5.5-7.41-6.05
				c-1.7-6.45-7.64-11.55-14.26-12.25c-6.63-0.71-13.51,3.03-16.52,8.97c1.22-3.65-2.56-7.6-6.4-7.48
				c-3.85,0.12-7.08,3.24-8.53,6.81c-1.45,3.57-1.47,7.53-0.96,16.55c-8.35,0.93-17.07,2-24.02,6.71
				c-6.95,4.71-11.38,14.31-7.52,21.77c3.08,1.14,6.16,2.29,9.24,3.43c-5.57-2.16-9.9,5.62-9.55,11.59
				c0.35,5.97,2.19,12.87-1.88,17.25c-4.32,4.65-14.2,5.12-13.94,11.45c0.09,2.04,1.45,3.89,1.44,5.93
				c-0.01,3.58-4.13,5.79-7.71,5.84c-3.58,0.05-7.11-1.22-10.67-0.88c-6.54,0.62-11.51,6.68-13.04,13.07
				c-1.53,6.39-0.36,13.08,0.81,19.55c-7.03-5.93-17.51-4.01-25.5,1.08c-1.16,36.32-1.22,72.59-1.09,108.94
				c0.04,10.63,0.04,21.26,0,31.89c5.63,3.32,10.89,7.28,16.64,10.41c9.33,5.08,19.76,7.84,30.2,9.79
				c14.48,2.71,29.57,3.87,44.1,1.97l-13.31,33.38c32.02-3.14,63.14-14.98,89.14-33.92c4.96-3.61,9.89-7.67,12.54-13.2
				c2.74-5.7,2.72-12.42,1.23-18.56c-2.73-11.22-10.81-21.44-21.81-24.96c-1.86-0.6-3.8-0.95-5.75-1.1
				c0.04-2.42-0.11-4.83-0.38-7.23c4.76-6.64,6.07-16.14,6.8-24.65c0.36-4.18,0.69-8.51-0.71-12.46c5.56,0.68,8.09-7.97,4.51-12.28
				c-3.58-4.31-9.79-5.07-15.38-5.53c-2.35-0.19-4.73-0.38-7.11-0.52c5.29-14.42,14.75-29.13,26.46-41.77
				c7.91-6.22,15.82-12.44,23.73-18.65c2.69-2.12,5.48-4.34,6.98-7.43c1.5-3.08,1.29-7.28-1.4-9.4c-0.74-0.58-1.65-0.86-2.59-0.91
				c4.25-5.06,5.53-12.75,2.38-18.65c13.12-1.9,20.14-20.43,11.58-30.55C228.23,270.66,229.13,253.84,219.81,246.16z M125.54,407.43
				c-11.41,4.45-22.45,14.82-34.02,10.82L114.95,408c5.24-4.14,11.18-7.68,17.81-8.69c5.96-0.91,12.68,0.74,16.51,5.25
				C141.16,404.18,133.04,404.51,125.54,407.43z"/>
		</g>
	</g>
	<path class="st0" d="M355.23,379.1c-1.8,5.55-3.62,11.3-2.36,16.94s6.49,11.15,13.67,11.81c4.83,0.44,10.28-1.22,14.29,0.96
		c2.41,1.31,3.5,3.63,5.08,5.57c5.17,6.31,17.16,8.29,25.09,4.15c3.4,6.47,8.39,12.42,14.6,17.42"/>
	<path class="st0" d="M557.9,436.53c-5.52,3.56-13.86,2.93-20.12,0.25c-6.26-2.68-11.05-7.02-16.21-10.91s-11.2-7.51-18.27-8.13
		c-5.83-0.51-12.05,1.06-17.42-0.81c-8.75-3.04-9.32-12.46-13.32-19.34c-6.68-11.48-27.17-16.18-41.68-9.25
		c-7.12,3.81-16.9,7.59-23.59,3.32c-2.56-1.63-3.95-4.13-5.12-6.56c-9.46-19.62-10.34-41.76-2.47-61.81
		c0.75-1.91,1.59-3.89,1.26-5.88s-2.25-3.97-4.78-4.01c-2.77-0.04-4.8,2.24-5.1,4.42s0.58,4.34,0.93,6.51
		c0.94,5.78-2.15,11.86-7.87,15.52c2.89-1.55,1.36-5.66-1.98-6.43s-6.94,1.08-8.59,3.51c-1.65,2.43-1.82,5.3-1.96,8.06
		c0.62-3-4.14-5.26-7.87-4.53c-3.73,0.73-6.39,3.26-8.77,5.64c-2.61,2.92-5.27,5.81-7.96,8.68c3.64,0.16,4.49,4.39,2.74,6.93
		c-1.75,2.54-4.91,4.49-5.78,7.3c-0.87,2.81,3.22,6.4,5.97,4.49c1-0.69,1.3-1.81,1.54-2.84c1.19-5.07,2.37-10.15,3.56-15.22
		c-0.78,4.96-1.57,9.91-2.35,14.87c-0.21,1.34-0.25,3,1.21,3.71c2.48,1.2,4.75-1.8,5.24-4.07c1.08-5.04,2.16-10.08,3.24-15.12
		c1.2,2.05,0.31,4.47-0.77,6.56s-2.37,4.28-1.94,6.52c0.43,2.24,3.57,4.27,6.09,3.22c1.79-0.74,2.33-2.54,2.63-4.12
		c0.9-4.6,1.45-9.24,1.66-13.89"/>
	<path class="st0" d="M379.41,361.8c-0.16-2.91-0.32-5.82-0.48-8.72c-3.54-1.69-8.09,1.29-8.92,4.5c-0.83,3.21,0.5,6.51,0.43,9.78
		c-0.1,4.52-2.82,8.69-5.13,12.83c-2.31,4.13-4.28,8.73-2.81,13.1c1.47,4.37,7.79,7.92,12.94,5.99"/>
	<g>
		<g>
			<path class="st0" d="M281.85,158.65c-1.34-8.81,2.05-18.43,9.26-23.66c7.21-5.24,18.07-5.24,24.69,0.72
				c6.62,5.96,7.44,17.58,1.09,23.83"/>
			<path class="st0" d="M286.11,199.8c-1.45,2.57,0.94,6.1,3.88,6.38c2.94,0.28,5.68-1.94,6.85-4.65c1.17-2.71,1.06-5.79,0.7-8.72
				c-0.37-2.93-0.98-5.86-0.77-8.8c0.4-5.49,3.6-10.35,7.07-14.63c3.46-4.28,7.34-8.36,9.53-13.41c2.19-5.05,2.29-11.48-1.42-15.54
				c-3.46-3.78-9.42-4.47-14.24-2.76c-7.25,2.58-12.31,10.29-4.67,16.41c3.14,0.38,4.3,4.68,3.06,7.59
				c-1.24,2.91-3.9,4.93-5.87,7.41c-1.97,2.48-3.22,6.18-1.32,8.71"/>
		</g>
		<g>
			<path class="st0" d="M252.52,194.91c-0.93-10.6,8.28-21,18.92-21.35c10.64-0.35,20.52,9.42,20.28,20.06
				c-0.26,11.93-10.93,21.09-13.84,32.66c-1.25,4.99-1.01,10.24-2,15.29c-0.99,5.05-3.7,10.28-8.53,12.03s-11.4-2.23-10.43-7.28"/>
			<path class="st0" d="M258.98,204.43c2.64,1.24,5.8-1.02,6.76-3.77c0.96-2.75,0.43-5.76,0.2-8.66c-0.23-2.9-0.04-6.13,1.97-8.24
				c2.47-2.59,7-2.34,9.74-0.05s3.88,6.08,3.78,9.65c-0.1,3.57-1.26,7.02-2.41,10.41"/>
			<path class="st0" d="M262.14,214.66c0.86-0.67,1.71-1.33,2.57-2c0.67,2.31-0.57,4.71-1.89,6.72c-1.32,2.01-2.83,4.14-2.73,6.54
				c0.09,2.4,2.83,4.73,4.86,3.43c-0.71,3.47-1.42,6.95-2.13,10.42"/>
		</g>
		<g>
			<path class="st0" d="M229.11,227.8c0.48-8.05,6.06-16.38,14.09-17.2c8.73-0.9,16.22,7.54,17.37,16.23
				c1.16,8.7-2.32,17.29-6.1,25.21s-8.05,15.93-8.61,24.68c-0.31,4.92,0.57,9.83,0.63,14.76c0.06,4.93-0.83,10.16-4.11,13.84
				c-3.28,3.68-9.48,5.03-13.2,1.8"/>
			<path class="st0" d="M228.01,254.34c4.51-1.3,6.73-6.5,7.03-11.19s-0.7-9.45,0.17-14.07c0.87-4.62,4.59-9.31,9.27-8.89
				c3.57,0.32,6.32,3.6,7.1,7.09c0.78,3.49-0.03,7.14-1.07,10.56"/>
			<path class="st0" d="M233.49,257.73c1.18-1.31,3.62-0.48,4.29,1.15c0.67,1.63,0,3.53-1.05,4.95c-1.05,1.42-2.45,2.54-3.55,3.92
				c-4.65,5.9-2.48,14.44-0.1,21.57"/>
		</g>
	</g>
	<g>
		<g>
			<path class="st0" d="M257.22,195.14c1.34-8.81-2.05-18.43-9.26-23.66c-7.21-5.24-18.07-5.24-24.69,0.72
				c-6.62,5.96-7.44,17.58-1.09,23.83"/>
			<path class="st0" d="M252.96,236.28c1.45,2.57-0.94,6.1-3.88,6.38c-2.94,0.28-5.68-1.94-6.85-4.65c-1.17-2.71-1.06-5.79-0.7-8.72
				c0.37-2.93,0.98-5.86,0.77-8.8c-0.4-5.49-3.6-10.35-7.07-14.63c-3.46-4.28-7.34-8.36-9.53-13.41
				c-2.19-5.05-2.29-11.48,1.42-15.54c3.46-3.78,9.42-4.47,14.24-2.76c7.25,2.58,12.31,10.29,4.67,16.41
				c-3.14,0.38-4.3,4.68-3.06,7.59c1.24,2.91,3.9,4.93,5.87,7.41c1.97,2.48,3.22,6.18,1.32,8.71"/>
		</g>
		<g>
			<path class="st0" d="M286.55,231.39c0.93-10.6-8.28-21-18.92-21.35c-10.64-0.35-20.52,9.42-20.28,20.06
				c0.26,11.93,10.93,21.09,13.84,32.66c1.25,4.99,1.01,10.24,2,15.29c0.99,5.05,3.7,10.28,8.53,12.03s11.4-2.23,10.43-7.28"/>
			<path class="st0" d="M280.09,240.91c-2.64,1.24-5.8-1.02-6.76-3.77c-0.96-2.75-0.43-5.76-0.2-8.66c0.23-2.9,0.04-6.13-1.97-8.24
				c-2.47-2.59-7-2.34-9.74-0.05c-2.75,2.29-3.88,6.08-3.78,9.65c0.1,3.57,1.26,7.02,2.41,10.41"/>
			<path class="st0" d="M276.93,251.15c-0.86-0.67-1.71-1.33-2.57-2c-0.67,2.31,0.57,4.71,1.89,6.72c1.32,2.01,2.83,4.14,2.73,6.54
				c-0.09,2.4-2.83,4.73-4.86,3.43c0.71,3.47,1.42,6.95,2.13,10.42"/>
		</g>
		<g>
			<path class="st0" d="M309.96,264.29c-0.48-8.05-6.06-16.38-14.09-17.2c-8.73-0.9-16.22,7.54-17.37,16.23
				c-1.16,8.7,2.32,17.29,6.1,25.21s8.05,15.93,8.61,24.68c0.31,4.92-0.57,9.83-0.63,14.76c-0.06,4.93,0.83,10.16,4.11,13.84
				c3.28,3.68,9.48,5.03,13.2,1.8"/>
			<path class="st0" d="M311.06,290.83c-4.51-1.3-6.73-6.5-7.03-11.19c-0.3-4.69,0.7-9.45-0.17-14.07
				c-0.87-4.62-4.59-9.31-9.27-8.89c-3.57,0.32-6.32,3.6-7.1,7.09c-0.78,3.49,0.03,7.14,1.07,10.56"/>
			<path class="st0" d="M305.58,294.21c-1.18-1.31-3.62-0.48-4.29,1.15s0,3.53,1.05,4.95s2.45,2.54,3.55,3.92
				c4.65,5.9,2.48,14.44,0.1,21.57"/>
		</g>
	</g>
	<path class="st3" d="M226.52,521.49c-4.08-16.2-8.17-32.39-12.25-48.59c-1.46-5.8-2.93-11.87-1.5-17.68
		c2.59-10.53,14.25-18.62,12.53-29.32c-2.02-12.6-21.62-18.59-19.81-31.22c0.91-6.32,7.12-10.39,13.03-12.81
		c5.91-2.42,12.49-4.31,16.45-9.32c4.03-5.09,4.28-12.08,5.1-18.52c0.82-6.44,2.99-13.61,8.84-16.43
		c4.92-2.37,10.75-0.83,15.98,0.75c10.3,3.11,21.16,6.58,28.23,14.68c4.81,5.52,9.44,13.77,16.66,12.52
		c9.49-1.64,11.15-18.63,20.78-18.23c-2.17,10.15-8.41,19.36-17.03,25.13c10.75-5.6,21.51-11.2,32.26-16.8
		c-5.73,11.45-15.65,20.76-30.48,28.83c8.69-6.28,19.11-10.13,29.79-11.02c-1.92,10.25-11.92,17-21.83,20.25
		c-20.46,6.7-42.68,3.31-63.93-0.14c8.35,2.88,13.71,12.56,11.71,21.17c-1.8,7.77-8.71,14.86-6.54,22.54
		c1.23,4.35,5.14,7.41,7.1,11.49c2.12,4.42,1.77,9.57,2.59,14.4c1.5,8.82,6.85,16.42,12.06,23.68c8.3,11.57,16.59,23.14,24.89,34.7
		c2.18,3.05,4.48,6.79,3.14,10.29c-1.56,4.09-6.86,4.97-11.23,5.21c-27.44,1.51-54.88,3.01-82.33,4.52
		c-8.98,0.49-19.04,0.62-25.63-5.51c-5.72-5.32-7.04-14.12-5.3-21.73c1.74-7.61,6.06-14.35,10.3-20.91"/>
	<path class="st3" d="M208.34,496.06c7.24-9.4,10.15-21.34,12.64-32.94c2.49-11.6,4.86-23.56,11.28-33.53
		c6.43-9.97,18.04-17.61,29.74-15.62c6.65,1.13,14.09,5.04,19.53,1.05c2.49-1.83,3.72-4.88,5.67-7.28s5.57-4.16,8.06-2.32
		c3.71,2.74-0.8,9.13-5.39,8.69c20.5,2.66,41.72-0.45,60.59-8.89c-8.91,11.16-23.45,17.58-37.7,16.66
		c10.01,5.39,24.34-1.22,26.73-12.34c0.58-2.69,0.93-6.04,3.48-7.09c2.39-0.98,5.17,1.14,5.75,3.66c0.58,2.52-0.41,5.12-1.62,7.41
		c-6.04,11.44-18.28,19.36-31.19,20.18c14.14,0.08,27.95-8.74,33.83-21.6c4.02,1.3,5.58,6.57,4.19,10.55
		c-1.39,3.99-4.84,6.86-8.31,9.25c-12.39,8.53-27.16,13.58-42.18,14.43c8.66-1.29,16.33-7.81,18.98-16.16
		c0.76-2.38,0.94-5.41-1.03-6.95c-2.1-1.63-5.31-0.38-6.98,1.68c-1.67,2.06-2.39,4.72-3.73,7.01c-4.08,6.94-13.22,9.26-21.22,8.42
		c-8-0.83-15.55-4.1-23.45-5.64c-7.9-1.54-16.97-0.98-22.72,4.65c-5.75,5.63-5.16,17.35,2.41,20.08
		c-10.55,15.43-21.09,30.87-31.64,46.3c-1.8-1.16-3.61-2.32-5.41-3.48"/>
	<path class="st3" d="M100.96,295.37c4.97-0.4,7.4-6.01,9.62-10.47s7.48-9.04,11.56-6.18c4.07,2.85,1.68,9.19-1.05,13.34
		c4.23-6.98,8.55-14.07,14.63-19.51c6.08-5.44,14.31-9.08,22.36-7.77c3.84,0.62,7.55,2.33,11.43,2.1c5.74-0.34,10.93-4.89,16.61-4
		c7.15,1.12,10.16,9.91,9.92,17.14c-0.43,13.08-6.93,25.84-17.26,33.89c1.74-2.11,3.58-4.3,6.08-5.4c2.51-1.1,5.89-0.72,7.38,1.57
		c2.16,3.31-0.78,7.47-3.35,10.48c-7.99,9.34-13.84,20.28-20.71,30.47c-6.87,10.19-15.13,19.96-26.17,25.36
		c-11.04,5.4-25.38,5.51-34.75-2.45c-0.79,4.86-1.59,9.73-2.38,14.59"/>
	<path class="st3" d="M157.44,314.81c0.84-1.41,1.7-2.85,2.95-3.92c1.24-1.07,2.95-1.74,4.54-1.34c1.8,0.46,3.31,2.2,5.14,1.9
		c1.38-0.22,2.39-1.57,3.78-1.76c1.35-0.18,2.56,0.77,3.71,1.51c1.15,0.74,2.77,1.26,3.79,0.34"/>
	<path class="st3" d="M155.24,320.39c1.98-4.03,6.87-6.38,11.25-5.4c1.13,0.25,2.24,0.7,3.4,0.65c0.95-0.04,1.86-0.41,2.81-0.5
		c2.08-0.2,4.02,0.93,5.99,1.66s4.5,0.93,5.84-0.68"/>
	<path class="st3" d="M170.08,318.06c0.94,0.77,1.88,1.54,2.82,2.31c0.61-0.51,1.22-1.02,1.83-1.53"/>
	<path class="st3" d="M124.01,340.25c2.04,0.25,3.99-0.8,5.75-1.85c1.76-1.05,3.64-2.18,5.7-2.1c2.05,0.08,4.15,2,3.57,3.97
		c1.58-1.88,4.39-2.2,6.8-1.72c2.41,0.47,4.66,1.58,7.07,2.06s5.22,0.17,6.82-1.69"/>
	<path class="st3" d="M133.61,349.39c4.88,2.03,10.98,0.6,14.45-3.38"/>
	<path class="st3" d="M169.89,338.97c-0.15,1.51-0.31,3.01-0.46,4.52c1.58,0.78,3.65,0.39,4.83-0.92"/>
	<path class="st3" d="M170.08,263.84c6.1-0.55,11.67-4.98,13.57-10.8c0.79-2.4,1.55-5.54,4.05-5.88c1.47-0.2,2.84,0.79,3.79,1.92
		c0.95,1.14,1.66,2.48,2.78,3.46c2.42,2.11,6.21,1.92,9.04,0.42c2.83-1.5,4.93-4.06,6.95-6.56"/>
	<path class="st3" d="M185.96,259.66c0.53,3.06,3.38,5.55,6.48,5.66c3.1,0.11,6.13-2.18,6.87-5.19c-0.13,2.07,2.06,3.71,4.14,3.71
		c2.08-0.01,3.96-1.19,5.58-2.49s3.17-2.77,5.1-3.53c1.93-0.76,4.42-0.6,5.73,1.01"/>
	<path class="st3" d="M153.32,381.74c2.9,3.41,8.34,4.33,12.2,2.06s5.71-7.46,4.15-11.66c4.82,1,10.14-2.03,11.73-6.69
		c3.2,0.08,6.37-1.74,7.91-4.54c1.54-2.8,1.37-6.46-0.41-9.11c3.58,2.04,8.33,1.79,11.67-0.61c3.34-2.4,5.1-6.82,4.37-10.88
		c-0.26-0.26-0.52-0.52-0.77-0.77"/>
	<path class="st3" d="M195.72,270.84c0.37,2.15,2.61,3.78,4.77,3.48s3.86-2.5,3.61-4.67c-0.38,1.29,0.57,2.68,1.81,3.2
		c1.24,0.51,2.66,0.33,3.94-0.05c3.43-1,6.45-3.34,8.28-6.42"/>
	<path class="st3" d="M196.89,279.4c1.22,1.93,0.41,4.44-0.37,6.59s-1.47,4.73-0.09,6.55c1.22,1.61,3.69,1.85,5.52,0.99
		c1.83-0.86,3.13-2.55,4.14-4.3c1.65,1.55,4.18,2.07,6.31,1.29s3.73-2.81,3.99-5.05"/>
	<path class="st3" d="M191.25,298.15c0.53,2.02,1.05,4.05,1.58,6.07c3.76,1.06,8.14-0.78,10.02-4.21
		c4.87,1.66,10.81-1.07,12.72-5.84"/>
	<path class="st3" d="M194.09,314.19c2.1-0.74,4.21-1.48,6.31-2.23c1.41,3.77-1,7.88-3.82,10.75c-2.82,2.87-6.26,5.4-7.68,9.16
		c-1.42,3.76,0.73,9.16,4.75,9.02c-0.29,2.77-3.22,4.49-5.95,5.02s-5.64,0.33-8.2,1.41c-2.57,1.08-4.64,4.2-3.26,6.62
		c0.37,0.65,0.94,1.16,1.32,1.8c1.06,1.77,0.28,4.38-1.58,5.27s-4.38-0.14-5.09-2.08c2.17,1.95,2.44,5.65,0.59,7.9
		c-1.86,2.25-5.54,2.68-7.87,0.92c1.2,1.94,0.91,4.67-0.67,6.31c-1.58,1.64-4.3,2.04-6.28,0.91"/>
	<path class="st3" d="M254.58,369.04c4.02-5.34,13.27-5.37,17.32-0.06c3.17,4.16,3.8,10.92,8.8,12.46c3.24,1,6.57-0.89,9.72-2.14
		c3.15-1.25,7.53-1.47,9.16,1.5c1.45,2.65-0.6,6.13-3.39,7.29c-2.79,1.16-5.96,0.69-9.32,0.93"/>
	<g>
		<path class="st0" d="M459.64,263.1c4.1,6.46,4.28,15.38,0.43,22.01c-2.49,4.28-6.44,7.58-8.38,12.16
			c-1.94,4.58-0.43,11.42,4.32,12.14c4.63,0.69,7.77-4.63,9.59-9.11"/>
		<path class="st0" d="M473.17,280.31c3.04,4.28,2.54,10.36,0.48,15.23s-5.44,9-8.08,13.56c-2.64,4.56-4.58,10-3.31,15.16
			c1.27,5.16,6.86,9.33,11.58,7.28"/>
		<path class="st0" d="M477.99,302.43c1.26,7.64-1.29,15.39-4.47,22.4s-7.04,13.8-8.68,21.36c-1.63,7.56-0.57,16.34,4.92,21.59"/>
		<path class="st0" d="M491,276.41c-0.96,10.4-1.93,20.8-2.89,31.19c-0.17,1.78-0.29,3.74,0.71,5.2c1.88,2.76,6.47,1.47,8.05-1.49
			c1.58-2.96,1.08-6.59,0.55-9.93"/>
		<path class="st0" d="M508.79,265.22c-5.27,13.33-10.55,26.66-15.82,39.99c-1.58,4-3.2,8.15-3.1,12.48s2.38,8.92,6.35,10.21
			c3.97,1.3,9.02-2.33,8.21-6.58"/>
		<path class="st0" d="M484.93,323.48c-5.29,5.36-7.18,14.06-4.61,21.26c1.36,3.79-0.15,8.09-2.41,11.38c-2.26,3.29-5.25,6-7.4,9.37
			c-2.15,3.37-3.38,7.83-1.65,11.45s7.3,5.01,9.56,1.72c-0.28,3.46-0.55,6.92-0.83,10.37c2.34,0.45,4.68,0.9,7.01,1.35
			c-0.12,5.14,4.34,9.91,9.28,9.94c-3.77,4.78-7.64,9.78-9.04,15.78c-1.39,6.01,0.49,13.32,5.82,16.05c3,1.54,6.51,1.4,9.75,2.25
			s6.62,3.47,6.37,6.93c-0.11,1.51-0.9,2.88-1.2,4.37c-0.73,3.61,2.09,7.54,5.62,7.85s6.94-3.09,6.79-6.78
			c3.32,8.97,15.73,12.54,23,6.61"/>
		<path class="st0" d="M491.49,352.55c1.2,4.3,4.92,7.72,9.17,8.41"/>
		<path class="st0" d="M486.62,390.62c1.78-2.5,5.32-2.6,8.27-2.08s6.11,1.41,8.82,0.1c2.71-1.31,3.71-6.13,0.94-7.3"/>
		<path class="st0" d="M485.61,334.2c0.47,3.75,0.94,7.51,1.41,11.26c3.1,0.93,6.63,0.05,9-2.22c1.39,5.51,8.55,8.39,13.13,5.28"/>
	</g>
	<path class="st0" d="M455.49,429.11c-4.56-5.05-12.96-4.34-18.78-0.84c-5.83,3.5-10.04,9.1-15.13,13.61
		c-5.09,4.51-12,8.07-18.52,6.16c-3.58-1.05-7.34-3.67-10.67-1.99c-3.83,1.94-2.91,8.3,0.73,10.58c3.64,2.28,8.36,1.58,12.48,0.35
		c4.12-1.22,8.3-2.91,12.55-2.35c-9.37,7.47-22.3,7.84-34.17,9.56c-11.86,1.72-25.13,6.58-29.08,17.9
		c18.56-4.45,37.12-8.91,55.69-13.36c-18.7,8.48-38,17.11-58.52,17.95c-3.48,0.14-8.14,1.11-8.25,4.59
		c-0.12,3.73,5.08,4.76,8.79,4.37c11.26-1.2,22.38-3.61,33.12-7.19c-8.28,2.73-16.57,5.47-24.85,8.2c-2.28,0.75-5.02,2.16-4.85,4.55
		c0.22,3.17,4.81,3.37,7.89,2.57c15.18-3.93,30.36-7.87,45.53-11.8c-8.78,0.42-17.13,5.89-21.03,13.77c19.1-4.8,38.2-9.6,57.3-14.4"
		/>
	<path class="st0" d="M580.71,440.43c-4.98-4.3-9.95-8.6-14.93-12.9c-35.98,33.77-47,85.68-56.21,134.16
		c0.48-8.42,0.93-17.05-1.59-25.1c-2.52-8.04-8.69-15.5-16.97-17.07c7.33-24.17-3.6-52.65-26.11-64.5
		c3.33,17.97-3.67,37.49-18.25,48.54"/>
</g>
<g id="Layer_5">
</g>
</svg>
