<?xml version="1.0" encoding="utf-8"?>
<!-- Generator: Adobe Adobe Illustrator 24.2.0, SVG Export Plug-In . SVG Version: 6.00 Build 0)  -->
<svg version="1.1" xmlns="http://www.w3.org/2000/svg" xmlns:xlink="http://www.w3.org/1999/xlink" x="0px" y="0px"
	 viewBox="0 0 620.71 620.71" style="enable-background:new 0 0 620.71 620.71;" xml:space="preserve">
<style type="text/css">
	.st0{fill:#FFFFFF;stroke:#000000;stroke-miterlimit:10;}
	.st1{fill:#FFFFFF;}
	.st2{fill:none;stroke:#000000;stroke-miterlimit:10;}
	.st3{stroke:#FFFFFF;stroke-miterlimit:10;}
	.st4{fill:#F2F2F2;}
	.st5{fill:#F2F2F2;stroke:#000000;stroke-miterlimit:10;}
	.st6{fill:#F4F4F4;stroke:#000000;stroke-miterlimit:10;}
	.st7{stroke:#000000;stroke-miterlimit:10;}
</style>
<g id="Layer_1">
</g>
<g id="Layer_2">
</g>
<g id="Layer_5">
	<g>
		<path class="st2" d="M524.68,121.93c-20.39,13.25-47.93-0.53-64.34-18.47s-28.94-40.79-50.67-51.69
			c-28.02-14.05-61.35-3.77-91.89,3.27s-68.21,8.09-87.09-16.92c36.85,30.7,88.48,42.74,135.11,31.52
			c-45.05,18.14-97.06,21.96-142.08,3.74c27.36,11.5,57.36,16.64,86.98,14.91c-29.24,11.47-62.47,12.45-92.33,2.72
			c27.08,11.85,57.94,14.87,86.8,8.49c-28.77,15.82-65.37,16.44-94.66,1.61c20.5,18.57,52.36,23.37,77.42,11.67
			c-17.51,14.36-43.03,18.21-64,9.65c19.89,8.82,43.97,7.5,62.77-3.43"/>
		<path class="st5" d="M-55.22,224.06c13.76-8.81,32.08-3.78,46.11,4.59s26.58,19.9,42.15,24.64c29.87,9.09,60.27-8.91,89.97-18.57
			c87.94-28.62,181.35,16.41,273.55,20.93c80,3.92,166.68-21.69,237.93,30.38c-0.57,127.31-1.14,254.62-10.26,381.3
			c-218.62,4.03-655.87,12.1-655.87,12.1v-5.28l-4.1-4.18v-10.27"/>
		<g>
			<polyline class="st2" points="67.98,448.38 99.92,538.14 259.37,497.56 344.89,453.58 381.79,363.23 220.25,366.62 66.86,448.29 
							"/>
			<polyline class="st0" points="238.1,289.9 160.77,453.9 161.24,452.7 260.08,478.45 238.57,290.5 			"/>
			<polyline class="st0" points="243.66,289.9 325.62,406.55 325.16,405.35 261.93,478.45 243.19,290.5 			"/>
			<polyline class="st0" points="62.66,447.98 262.88,444.87 381.79,363.23 342.21,460.16 264.46,533.06 99.92,538.14 62.66,447.98 
							"/>
		</g>
		<path class="st2" d="M258.6,143.19c21.88-10.7,43.91-21.45,67.34-28.13s48.58-9.11,72.15-2.99c28.82,7.48,52.78,26.86,78.42,42.01
			c25.64,15.15,56.96,26.44,84.82,15.93"/>
		<path class="st2" d="M146.29,184.33c24.09,16.5,56.43,15.93,84.3,7.24s52.89-24.49,79.16-37.23s55.44-22.63,84.29-18.18
			c26.53,4.09,49.57,19.71,72.86,33.04c23.29,13.33,49.81,25.01,76.2,20.12"/>
		<path class="st2" d="M357.87,151.02c2.57,10.01,12.09,17.81,22.4,18.37s20.62-6.17,24.26-15.84"/>
		<path class="st2" d="M151.5,128.57c3.87,14.36,15.43,25.66,28.57,32.63s27.88,10.21,42.41,13.37
			c-14.06,2.47-28.48-4.2-38.78-14.08c-10.3-9.88-17.24-22.67-24.01-35.24c11.68,20.26,33.14,34.57,56.33,37.56
			c-9.18-1.75-17.13-7.69-23.08-14.89c-5.95-7.2-10.15-15.66-14.3-24.03c9.06,14.1,21.8,25.81,36.6,33.66
			c-10.73-10.89-19.02-24.17-24.07-38.6c8.35,16.22,21.3,30.04,36.93,39.44c-5.41-7.57-10.82-15.15-16.22-22.72
			c6.63,7.61,14.68,13.98,23.62,18.67c-2.59-5.95-5.18-11.9-7.77-17.85c4.11,6.52,10.75,11.4,18.19,13.39"/>
		<path class="st2" d="M554.3,154.46c9.78-5.25,17.83-13.66,22.66-23.65c-1.47,13.46-11.58,25.58-24.55,29.43
			c11.85-0.3,23.31-7.25,29.07-17.61c-3.56,9.78-12.62,17.34-22.87,19.11c9.08,1.49,18.83-2.16,24.7-9.25
			c-3.33,5.62-8.47,10.15-14.47,12.75c15.67,0.07,31.27-6.42,42.27-17.57"/>
		<path class="st2" d="M-41.61,184.66c21.82-17.89,53.08-23.5,79.76-14.31c15.74,5.42,29.48,15.42,44.74,22.09
			c15.26,6.67,33.8,9.64,48,0.96"/>
		<path class="st2" d="M51.21,145.01c8.47-9.12,22.99-9.86,34.83-6.02s22.07,11.37,33.14,17.06c11.07,5.69,24.15,9.55,35.89,5.41"/>
		<path class="st2" d="M648.09,195.25c-16.96-10.09-38.63-7.81-57.32-1.48c-18.69,6.33-36.09,16.33-55.2,21.24
			c-59.33,15.23-120.41-20.91-181.54-17"/>
		<path class="st2" d="M400.46,292.88c23.01-22.14,58.36-26.41,89.88-21.27c31.52,5.14,61.12,18.27,91.95,26.6
			c30.83,8.33,65.03,11.5,93.65-2.67"/>
		<path class="st2" d="M582.2,335.84c-43.35-28.61-98.87-38.06-149.24-25.39c-20.96,5.27-41.59,14.23-63.17,13.14"/>
	</g>
</g>
</svg>
