<?xml version="1.0" encoding="utf-8"?>
<!-- Generator: Adobe Adobe Illustrator 24.2.0, SVG Export Plug-In . SVG Version: 6.00 Build 0)  -->
<svg version="1.1" xmlns="http://www.w3.org/2000/svg" xmlns:xlink="http://www.w3.org/1999/xlink" x="0px" y="0px"
	 viewBox="0 0 620.71 620.71" style="enable-background:new 0 0 620.71 620.71;" xml:space="preserve">
<style type="text/css">
	.st0{fill:#FFFFFF;stroke:#000000;stroke-miterlimit:10;}
	.st1{fill:#FFFFFF;}
	.st2{fill:none;stroke:#000000;stroke-miterlimit:10;}
	.st3{stroke:#FFFFFF;stroke-miterlimit:10;}
	.st4{fill:#F2F2F2;}
	.st5{fill:#F2F2F2;stroke:#000000;stroke-miterlimit:10;}
	.st6{fill:#F4F4F4;stroke:#000000;stroke-miterlimit:10;}
	.st7{stroke:#000000;stroke-miterlimit:10;}
</style>
<g id="Layer_1">
	<rect x="-10.64" y="-14.64" class="st4" width="642" height="650"/>
</g>
<g id="Layer_2">
	<g>
		<circle class="st0" cx="508.79" cy="267.22" r="71.73"/>
		<path class="st0" d="M523.02,308.16c3.71,7.25,0.06,16.14-4.93,22.57c-4.98,6.44-11.43,12.03-14.28,19.65
			c-0.94,2.5-1.41,5.46-0.02,7.74c2.8,4.59,10.19,2.54,13.78-1.47s5.83-9.5,10.61-11.98c2.33-1.21,5.5-1.42,7.36,0.44
			c2.47,2.47,1.16,6.76-0.94,9.55c-2.7,3.6-6.46,6.45-8.37,10.53c-1.91,4.07-0.77,10.17,3.61,11.21c4.71,1.12,8.18-4.05,11.85-7.21
			c5.21-4.49,13.32-5.24,19.27-1.77s9.3,10.89,6.76,18.63c6.74-6.11,8.42-17.09,3.82-24.94c-4.6-7.85-14.99-11.75-23.62-8.86
			c7-3.22,9.95-13.05,5.87-19.6c-4.08-6.54-14.2-8.23-20.18-3.37c8.71-6.47,16.39-14.32,22.65-23.18"/>
		<ellipse class="st0" cx="181.7" cy="96.73" rx="118.42" ry="42.01"/>
		<path class="st0" d="M217.42,131.21c-6.19,0.73-12.8,1.64-17.5,5.74c-4.7,4.1-6.03,12.59-0.97,16.24c4.02,2.9,9.59,1.41,14.27-0.2
			c7.36-2.54,14.98-5.15,22.74-4.54c7.76,0.62,15.78,5.38,17.59,12.96c2.92,12.19-10.76,21.86-22.99,24.63
			c-41.6,9.44-86.39-14.43-126.94-1.16c-6.39,2.09-13.69,7.8-11.12,14.02c2.16,5.24,9.34,5.59,14.99,5.08
			c13.58-1.23,27.17-2.47,40.75-3.7c8.36-0.76,19.44,0.3,21.36,8.47c2.06,8.8-9.03,14.59-17.97,15.89
			c-24.19,3.53-48.84-0.61-73.26,0.59c-24.42,1.2-50.81,9.46-60.77,32.32c15.14-20.89,43.9-26.47,69.69-25.87s52.06,5.65,77.08-0.67
			c9.58-2.42,19.62-7.36,23.18-16.58c3.56-9.22-4.23-22.1-13.82-19.71c24.52,8.34,51.97,7.79,76.14-1.53
			c9.43-3.63,18.66-8.81,24.63-16.96s7.98-19.8,2.79-28.48c-8.09-13.54-27.41-13.41-43.09-11.6c9.94-2.06,20.66-4.56,27.18-12.34
			c6.52-7.78,5.06-22.5-4.74-25.11"/>
		<path d="M346.3,195.36v-69.77c0-9.51,7.71-17.22,17.22-17.22H563.3c9.51,0,17.22,7.71,17.22,17.22v69.77
			c0,9.51-7.71,17.22-17.22,17.22H363.52C354.01,212.58,346.3,204.87,346.3,195.36z"/>
		<path d="M292.56,415.1c-16.82,13.26-30.39,30.62-39.2,50.14c-2.69,5.97-4.15,14.58,1.61,17.7c4.25,2.3,9.39-0.3,13.5-2.85
			c16.65-10.33,33.31-20.66,49.96-31c-9.68,12.22-19.37,24.43-29.05,36.65c-2.77,3.5-5.67,8.2-3.46,12.07
			c2.61,4.57,9.42,3.38,14.35,1.55c62.89-23.41,125.95-52.78,193.06-52.53c6.26,0.02,12.7,0.35,18.4,2.92
			c5.7,2.58,10.57,7.88,10.9,14.14c0.33,6.34-4.07,12.18-9.54,15.41c-5.47,3.23-11.89,4.36-18.31,5.92
			c10.28-1.82,20.86-3.74,29.67-9.34c8.81-5.59,15.53-15.82,13.81-26.12c-1.38-8.22-7.88-14.9-15.43-18.43s-16.06-4.37-24.39-4.63
			c-35.07-1.09-69.91,7.23-102.63,19.9c-32.72,12.67-63.57,29.63-94.31,46.53c17.2-15.12,34.6-30.47,47.39-49.47
			c3.67-5.45,6.9-12.88,3.03-18.18c-4.53-6.22-14.26-3.79-21.14-0.34c-23.71,11.91-44.65,28.56-65.41,45.09
			c10.53-20.01,27.04-36.82,46.85-47.72c-6.83-2.3-13.65-4.59-20.48-6.89"/>
		<path d="M407.04,189.82c-25.76,12.96-51.69,26.03-74.67,43.46c-4.2,3.18-8.41,6.65-10.77,11.36c-2.36,4.71-2.38,10.98,1.3,14.74
			c5.92,6.06,16.01,2.22,23.65-1.45c13.93-6.7,28.66-11.73,43.78-14.95c5.64-1.2,13.71-0.54,14.38,5.19
			c0.44,3.8-3.05,6.77-6.17,8.97c-7.31,5.16-14.62,10.33-21.93,15.49c-2.19,1.55-4.67,3.84-3.92,6.42c0.83,2.85,4.68,3.17,7.64,2.92
			c19.51-1.65,39.01-3.29,58.97-4.43c-14.13-1.5-28.26-3.01-42.39-4.51c11.18-5.04,21.43-12.15,30.06-20.87
			c5.2-5.26,10.08-13.05,6.61-19.59c-2.37-4.48-7.77-6.34-12.76-7.23c-20.78-3.72-41.9,2.57-62.08,8.79
			c30.35-11.64,60.7-23.29,91.05-34.93"/>
		<path class="st3" d="M101.88,374.91V259.67c0-13.4,10.86-24.26,24.26-24.26H267.1c13.4,0,24.26,10.86,24.26,24.26v115.24
			c0,13.4-10.86,24.26-24.26,24.26H126.15C112.75,399.17,101.88,388.31,101.88,374.91z"/>
		<path d="M320.72,350.51c10.06-16.02,20.11-32.03,30.17-48.05c1.35-2.14,2.72-4.88,1.43-7.05c-1.05-1.77-3.52-2.25-5.49-1.64
			c-1.97,0.61-3.55,2.06-5.06,3.46c-14.04,13.03-28.07,26.05-42.11,39.08c-4.69,4.35-9.62,8.84-15.77,10.62s-13.86-0.11-15.62-4.25
			c-0.03-10.96-0.06-21.91-0.09-32.87c5.3,3.16,12.29,1.87,17.58-1.31s9.38-7.96,13.85-12.23c9.97-9.53,22.18-16.72,35.36-20.8
			c7.29-2.26,15.55-3.49,22.27,0.13c8.93,4.8,11.84,16.83,9.22,26.62c-2.62,9.79-9.47,17.82-16.27,25.34s-13.93,15.18-17.75,24.58
			c0,0.12,0,0.23,0,0.35"/>
		<ellipse class="st0" cx="357.23" cy="402.56" rx="100.15" ry="55.49"/>
		<g>
			<ellipse class="st0" cx="428.13" cy="481.08" rx="92.03" ry="33.16"/>
			<path class="st0" d="M415.42,495.89c-11.58,2.94-23.17,5.89-34.75,8.83c-3.9,0.99-8.34,2.43-9.85,6.17
				c-2.19,5.43,3.99,11.03,9.84,11.36s11.39-2.42,17.17-3.43s13.03,0.69,14.8,6.28c2.51,7.93-7.73,13.66-15.95,14.94
				c-31.98,4.98-64.44-4.08-94.78-15.37c-30.33-11.29-60.17-25.01-92.17-29.9c-31.99-4.89-67.54,0.48-90.82,22.97
				c-11.77,11.37-22.7,27.86-39.04,26.93c-15.84-0.9-25.73-20.57-20.63-35.59s20.66-24.45,36.29-27.18
				c12.28-2.14,25.08-0.97,37.11-4.24c12.03-3.27,23.84-13.18,23.2-25.63c-0.62-11.98-12.29-20.47-23.78-23.91
				c-21.01-6.3-45.05-1.29-65.78,16.71c15.71-9.61,34.79-13.59,53.03-11.04c9.79,1.37,21.23,7.01,21.14,16.89
				c-0.06,6.14-4.99,11.37-10.65,13.77c-5.65,2.4-11.96,2.59-18.1,2.91c-15.74,0.81-31.76,2.8-45.96,9.62
				c-14.21,6.82-26.47,19.2-29.75,34.61c-4.44,20.86,9.63,43.14,29.51,50.88c19.88,7.74,43.46,2.17,60-11.29
				c11.43-9.3,20.01-22.03,32.53-29.81c18.05-11.2,41.37-10.13,61.67-3.87s38.84,17.14,58.6,24.96
				c44.37,17.57,94.92,19.04,140.22,4.06c10.92-3.61,23.52-11.24,22.26-22.67c-0.83-7.48-7.92-13.04-15.29-14.57
				c-7.37-1.53-14.99,0.06-22.35,1.65"/>
		</g>
	</g>
</g>
<g id="Layer_5">
</g>
</svg>
