<?xml version="1.0" encoding="utf-8"?>
<!-- Generator: Adobe Adobe Illustrator 24.2.0, SVG Export Plug-In . SVG Version: 6.00 Build 0)  -->
<svg version="1.1" xmlns="http://www.w3.org/2000/svg" xmlns:xlink="http://www.w3.org/1999/xlink" x="0px" y="0px"
	 viewBox="0 0 620.71 620.71" style="enable-background:new 0 0 620.71 620.71;" xml:space="preserve">
<style type="text/css">
	.st0{fill:#FFFFFF;stroke:#000000;stroke-miterlimit:10;}
	.st1{fill:#FFFFFF;}
	.st2{fill:none;stroke:#000000;stroke-miterlimit:10;}
	.st3{stroke:#FFFFFF;stroke-miterlimit:10;}
	.st4{fill:#F2F2F2;}
	.st5{fill:#F2F2F2;stroke:#000000;stroke-miterlimit:10;}
	.st6{fill:#F4F4F4;stroke:#000000;stroke-miterlimit:10;}
	.st7{stroke:#000000;stroke-miterlimit:10;}
</style>
<g id="Layer_1">
</g>
<g id="Layer_2">
	<polygon points="155.72,408.8 455.59,520.15 587.12,372.85 347.74,325.5 	"/>
	<g>
		<path d="M87.71,340.64c-2.99,7.66-8.66,13.93-14.2,20.01c-2.25,2.47-4.5,4.94-6.75,7.4c-2.33,2.56-4.71,5.16-7.71,6.89
			s-6.76,2.49-9.95,1.15c-1.29-0.54-2.52-1.43-3.92-1.42c-2.07,0.01-3.56,1.88-5.06,3.31c-5.8,5.53-16.19,5.12-21.54-0.84
			c-1.54,3.36-1.23,7.51,0.79,10.61s5.69,5.05,9.38,5c3.19-0.04,6.36-1.47,9.5-0.87c3.08,0.59,5.76,3.08,8.88,2.81
			c5.62-0.49,7.04-8.83,12.26-10.98c3.99-1.64,8.3,0.95,12.22,2.74c6.55,2.99,14.05,3.84,21.1,2.4c2.84-0.58,5.72-1.6,7.71-3.71
			c1.98-2.11,2.78-5.55,1.19-7.97c-1.46-2.22-4.54-3.17-5.5-5.65c-0.76-1.97,0.11-4.16,0.98-6.09c3.6-8.04,7.2-16.08,10.79-24.12
			c-6.88,0.1-13.77,0.2-20.65,0.31"/>
		<path class="st0" d="M153.07,302.86c-4.23,23.14-32.22,36.41-34.92,59.15c-15.55-3.61-31.39-5.95-47.32-6.99
			c5.02-17.04,10.28-34.54,21.3-48.47c7.04-8.9,16.18-15.99,23.02-25.05c4.96-6.57,8.63-14.09,14.04-20.3
			c12.37-14.19,31.98-19.65,46.52-31.61"/>
		<path class="st0" d="M187.23,259.12c-0.58,8.52-6.21,15.98-12.92,21.27c-6.71,5.29-14.56,8.89-21.86,13.34
			c-7.29,4.45-14.31,10.08-17.85,17.85"/>
		<path class="st0" d="M156.09,288.34c-2.93,7.5-9.65,12.7-15.84,17.84c-6.19,5.14-12.47,11.2-13.87,19.12"/>
		<g>
			<g>
				<path d="M115.91,286.26c2.3,1.23,4.93,1.69,7.5,1.19c2.14-0.42,4.18-1.51,5.91-2.83c-0.26,0.2-0.6,0.3-0.87,0.5
					c-3.35,2.56-8.03,2.59-11.67,0.64C116.61,285.68,116.06,286.34,115.91,286.26L115.91,286.26z"/>
			</g>
		</g>
		<polygon class="st0" points="124.11,240.25 247.69,140.07 396.3,131.5 511.64,197.08 469.13,206.96 475.06,364.15 363.02,415.23 
			156.74,410.17 156.74,233.74 		"/>
		<polygon points="204.23,244.14 203.31,311.57 236.86,325.3 238.72,252.95 		"/>
		<path class="st0" d="M199.11,243.17c-5.79-0.57-11.38,4.96-10.87,10.76c0.29,3.33,2.22,6.3,2.81,9.59
			c0.59,3.29-1.14,7.54-4.48,7.54"/>
		<path class="st0" d="M192.95,255.56c-0.13,6.02-3.4,11.47-6.55,16.6c-3.16,5.13-6.4,10.6-6.48,16.63
			c-0.08,6.02,4.37,12.54,10.39,12.4"/>
		<path class="st0" d="M189.55,276.24c-0.84,12.54-1.67,25.08-2.51,37.61c-0.2,3-0.23,6.45,1.99,8.48c2.68,2.44,7.26,1.21,9.62-1.54
			s3.14-6.47,4-10c0.86-3.52,2.03-7.24,4.86-9.5c5.73-4.59,14.61-0.83,21.32-3.78c7.03-3.09,9.03-12.03,14.08-17.81
			c7.31-8.37,19.84-9.11,33.41-8.99c3.46-1.86,6.93-3.71,10.39-5.57"/>
		<path class="st0" d="M198.68,282.77c-2.2-4.08-0.21-9.44,3.38-12.37c3.59-2.93,8.36-3.94,12.96-4.5c4.6-0.56,9.33-0.8,13.63-2.52
			c5.17-2.07,9.28-6.1,14.08-8.91c14.79-8.66,34.54-5.05,50.61-12.26c4.85-0.49,9.85-0.97,14.51,0.47
			c4.66,1.44,8.92,5.31,9.25,10.17c0.26,3.75-1.98,7.47-5.25,9.33c-3.27,1.86-7.4,1.94-10.9,0.56"/>
		<polygon points="359.49,416.55 365.36,218.44 412.4,193.32 407.51,377.22 		"/>
		<path class="st0" d="M351.28,243.61c1.44-0.96,2.87-1.91,4.31-2.87c0.93,0.88,0.42,2.53-0.56,3.34c-0.99,0.81-2.29,1.11-3.42,1.71
			s-2.18,1.76-1.93,3.01"/>
		<path class="st0" d="M402.94,197.44c-14.94-2.58-29.81,4.45-42.63,12.55c-12.82,8.1-25.25,17.67-42.12,24.1
			c-3.11-2.06-6.9-4.21-10.37-2.83c-1.51,0.6-2.74,1.82-4.31,2.24c-1.91,0.5-3.9-0.27-5.87-0.34c-3.12-0.12-6.01,1.52-8.71,3.1
			c-0.67,0.39-1.43,0.95-1.37,1.73c0.06,0.68,0.79,1.14,1.47,1.16c0.68,0.01,1.33-0.29,1.95-0.57c3.67-1.64,7.68-2.51,11.7-2.52
			c1.7-0.01,3.44,0.15,4.96,0.91c1.52,0.76,2.78,2.22,3.59,4.8c-4.54-0.88-8.98,1.51-13.14,3.53s-9.15,3.72-13.25,1.58
			c-0.92-0.48-1.76-1.15-2.76-1.43s-2.26-0.05-2.73,0.88c-0.71,1.42,0.91,2.88,2.37,3.5c5.55,2.39,12.16,2.16,17.54-0.61
			c0.73-0.38,1.47-0.81,2.29-0.87c0.82-0.07,1.75,0.37,1.94,1.17c0.23,0.99-0.73,1.84-1.62,2.34c-5.23,2.94-12,2.94-17.23-0.01
			c-0.9-0.51-1.78-1.11-2.8-1.28c-1.02-0.18-2.23,0.21-2.6,1.18c-0.63,1.64,1.41,2.97,3.06,3.54c-0.92-0.35-1.83-0.7-2.75-1.05
			c-0.3,2.35,1.63,4.48,3.83,5.37c2.19,0.89,4.63,0.87,6.98,1.15c2.35,0.28,4.84,0.97,6.31,2.83c-1.75,2.77-5.85,3.72-8.64,2
			c-0.95-0.59-1.74-1.42-2.77-1.85c-1.03-0.43-2.46-0.24-2.91,0.77c-0.61,1.36,0.93,2.66,2.25,3.36c3.71,1.99,8.09,4.02,11.94,2.34
			c2-0.87,3.49-2.63,5.38-3.72c2.28-1.32,5-1.6,7.51-2.41c2.51-0.82,5.07-2.52,5.5-5.12"/>
		<path class="st0" d="M310.37,263.18c4.25-0.48,6.81-4.85,8.51-8.78c1.7-3.93,3.73-8.41,7.83-9.62c-1.96,4.28-3.92,8.55-5.89,12.83
			c3.48-2.98,6.03-7.03,7.23-11.45c0.21-0.78,0.4-1.6,0.9-2.23c0.5-0.63,1.44-1.01,2.14-0.59c0.96,0.57,0.75,2,0.38,3.06
			c-1.51,4.28-3.6,8.35-6.18,12.08c3.13-1.81,6.26-3.62,9.39-5.42c0.41-0.24,0.83-0.48,1.12-0.85c0.84-1.07,0.27-2.67-0.62-3.69
			s-2.09-1.81-2.7-3.01c-0.62-1.21-0.25-3.08,1.09-3.32c1.46-0.26,2.35,1.47,3.1,2.74c0.99,1.68,2.53,3,3.43,4.73
			s0.92,4.22-0.72,5.27c2.16-4.63,4.32-9.26,6.48-13.89c0.37-0.79,0.95-1.71,1.82-1.65c1.34,0.1,1.28,2.1,0.8,3.35
			c-1.73,4.5-3.45,9-5.18,13.5c-0.49,1.28-1.22,2.76-2.58,2.94c-1.88,0.25-3.45-2.25-5.27-1.7c-1.75,0.53-1.89,3.39-3.65,3.88
			c-1.29,0.37-2.51-0.81-3.85-0.89c-1.47-0.09-2.64,1.1-3.83,1.97c-4.43,3.24-10.53,2.32-15.91,1.25c0.62-0.13,1.24-0.27,1.86-0.4"
			/>
		<path class="st0" d="M363.63,335.59c10.3,0.73,20.82-4,27.1-12.19c4.79-6.25,7.11-14.13,12.02-20.29c5.26-6.6,13-10.63,20.2-15.03
			c25.19-15.39,46.22-37.52,60.32-63.45"/>
		<path class="st0" d="M415.29,286.34c1.09,2.4,4.23,3.27,6.79,2.64c2.56-0.63,4.67-2.39,6.68-4.09
			c16.02-13.58,32.05-27.17,48.07-40.75"/>
		<path class="st0" d="M441.49,284.04c5.98,1.89,12.15-1.88,17.24-5.55c5.09-3.67,11.06-7.62,17.14-6.1
			c2.62,0.66,4.89,2.28,7.45,3.14s5.84,0.71,7.8,0.15c-0.23-33.72-0.47-67.44-0.63-100.62c-12.15,0.58-24.3,1.16-38.11,2.62
			c-9.16,16.48-18.74,33.44-33.75,44.85c-9.71,7.38-21.22,12.04-31.2,19.04c-7.91,5.55-14.74,12.48-21.52,19.36
			c-15.24,15.48-30.48,30.97-45.71,46.45"/>
		<path class="st0" d="M340.37,285.8c-9.5,2.34-15.8,11.07-21.28,19.17c-5.47,8.1-11.82,16.82-21.33,19.1"/>
		<path class="st0" d="M303.08,309.91c0.28,23-1.06,46.02-4.41,69c14.31-5.87,24.41-18.77,32.78-31.77
			c8.37-13,15.93-26.94,27.69-36.99"/>
		<path class="st0" d="M305.1,376.1c9.29-0.9,16.8-7.98,22.17-15.62c5.36-7.63,9.44-16.26,15.95-22.94"/>
		<path class="st0" d="M318.58,370.78c6.19-0.58,11.52-4.78,15.24-9.76c3.71-4.98,6.13-10.79,9.03-16.28
			c2.91-5.49,6.51-10.88,11.8-14.14"/>
		<path class="st0" d="M445.48,200.43c-4.09,1.82-8.62,4.12-9.86,8.42c-0.55,1.91-0.38,4.07-1.48,5.73
			c-2.19,3.32-7.17,2.17-11.14,2.05c-7.02-0.22-13.29,3.95-19.8,6.57c-8.12,3.26-16.96,4.16-25.49,6.17
			c-8.52,2-17.21,5.44-23.31,11.81c-0.06,0-0.12,0-0.17,0"/>
		<path class="st0" d="M336.07,207.66c-9.43-9.6-18.86-19.19-27.15-28.18c5.76-6.04,12.49-12.51,20.83-12.57
			c10.69-0.07,18.65,10.37,29.11,12.54c9.67,2,19.35-3.39,29.22-3.48c11.73-0.1,22.42,7.23,34.13,7.97
			c6.64,0.42,13.53-1.29,19.85,0.79c4.63,1.52,8.54,5.1,9.77,10.22c0.15,1.36-1.02,2.56-2.32,2.99s-2.7,0.3-4.07,0.29
			s-2.83,0.15-3.87,1.04"/>
		<path class="st0" d="M333.41,364.97c9.63-1.81,17.12-9.62,21.87-18.2c4.74-8.58,7.38-18.14,11.48-27.04
			c4.11-8.9,10.18-17.52,19.19-21.38"/>
		<path class="st0" d="M358.16,342.36c7.57-4.88,11.93-13.29,16.46-21.08c4.53-7.79,10.15-15.79,18.67-18.69"/>
		<g>
			<g>
				<path d="M402.86,191.16c-4.31-0.11-8.64-0.16-12.9,0.62c-4.66,0.86-9.08,2.75-13.48,4.43c-2.6,1-5.2,1.99-7.82,2.92
					c-0.31,0.11-0.56,0.39-0.87,0.5c4.67-1.66,9.25-3.52,13.9-5.22c2.15-0.79,4.32-1.51,6.56-1.98c2.07-0.43,4.18-0.67,6.29-0.77
					c2.48-0.12,4.96-0.07,7.44-0.01C402.28,191.67,402.58,191.15,402.86,191.16L402.86,191.16z"/>
			</g>
		</g>
		<g>
			<g>
				<path d="M424.51,192.3c-4.9,1.02-9.81,2.01-14.82,2.28c-0.3,0.02-0.57,0.48-0.87,0.5c5.01-0.27,9.92-1.26,14.82-2.28
					C423.96,192.73,424.21,192.36,424.51,192.3L424.51,192.3z"/>
			</g>
		</g>
		<g>
			<g>
				<path d="M344.73,201.42c7.3-5.08,15.16-9.19,23.09-13.19c0.27-0.14,0.62-0.38,0.83-0.48c-6.56,3.3-13.09,6.7-19.33,10.58
					c-1.85,1.15-3.67,2.35-5.45,3.59C344.14,201.73,344.46,201.61,344.73,201.42L344.73,201.42z"/>
			</g>
		</g>
		<g>
			<g>
				<path d="M359.84,193.93c4.09-2.11,8.39-3.75,12.68-5.41c4.02-1.55,8.02-3.46,12.38-3.7c0.3-0.02,0.57-0.48,0.87-0.5
					c-4.44,0.25-8.51,2.22-12.6,3.79c-4.23,1.63-8.46,3.26-12.49,5.34C360.4,193.58,360.05,193.82,359.84,193.93L359.84,193.93z"/>
			</g>
		</g>
		<g>
			<g>
				<path d="M415.67,225.85c-3.83,6.47-7.4,13.1-10.24,20.07c-0.82,2.03-1.59,4.07-2.3,6.14c0.08-0.23,0.78-0.26,0.87-0.5
					c2.45-7.11,5.61-13.93,9.25-20.5c1.06-1.92,2.17-3.82,3.29-5.71C416.39,225.6,415.82,225.6,415.67,225.85L415.67,225.85z"/>
			</g>
		</g>
		<g>
			<g>
				<path d="M411.11,226.99c-4.72,7.21-9.24,14.55-13.5,22.04c-1.22,2.14-2.41,4.29-3.59,6.46c0.13-0.25,0.73-0.25,0.87-0.5
					c4.12-7.56,8.49-14.99,13.09-22.27c1.32-2.09,2.66-4.16,4.01-6.22C411.82,226.74,411.28,226.74,411.11,226.99L411.11,226.99z"/>
			</g>
		</g>
		<g>
			<g>
				<path d="M403.13,231.55c-8,10.16-15.48,20.71-23.13,31.13c-2.15,2.93-4.32,5.86-6.51,8.76c0.18-0.24,0.68-0.25,0.87-0.5
					c7.79-10.32,15.22-20.9,22.98-31.23c2.19-2.91,4.4-5.8,6.65-8.66C403.81,231.29,403.33,231.31,403.13,231.55L403.13,231.55z"/>
			</g>
		</g>
		<g>
			<g>
				<path d="M397.43,229.27c-6.28,6.18-12.74,12.2-18.56,18.82c-6,6.82-11.02,14.4-16.02,21.96c-2.85,4.3-5.7,8.61-8.73,12.79
					c0.18-0.24,0.69-0.25,0.87-0.5c5.35-7.41,10.16-15.19,15.4-22.69c2.59-3.71,5.28-7.34,8.23-10.77c2.87-3.35,5.92-6.54,9.03-9.67
					c3.51-3.52,7.1-6.95,10.65-10.44C398.07,229,397.66,229.04,397.43,229.27L397.43,229.27z"/>
			</g>
		</g>
		<g>
			<g>
				<path d="M300.71,278.16c-0.23,3.96-0.84,7.89-1.14,11.85c-0.31,4.05-0.13,8.01,0.61,12.01c0.72,3.93,1.59,7.78,1.73,11.79
					c0.14,4.11,0.14,8.23,0.11,12.34c-0.07,8.29-0.16,16.58-0.16,24.87c0,8.28,0,16.57,0,24.85c0,4-0.55,7.93-1.02,11.89
					c-0.12,0.99-0.24,1.97-0.24,2.96c-0.01,0.97,0.06,1.93,0.07,2.9c0.01,0.97-0.07,1.93-0.28,2.87c-0.18,0.81-0.45,1.6-0.63,2.41
					c-0.19,0.84-0.25,1.68-0.16,2.54c-0.01-0.13,0.88-0.36,0.87-0.5c-0.18-1.74,0.42-3.29,0.79-4.96c0.43-1.91,0.2-3.83,0.21-5.77
					c0.01-1.97,0.36-3.94,0.6-5.89c0.24-1.97,0.47-3.95,0.58-5.94c0.23-4.1,0.07-8.24,0.07-12.35c0-4.14,0-8.28,0-12.43
					c0-8.3,0.03-16.59,0.13-24.89c0.05-4.12,0.08-8.24,0.01-12.35c-0.04-2.02-0.05-4.06-0.27-6.07c-0.21-1.97-0.59-3.93-0.97-5.87
					c-0.78-3.97-1.44-7.89-1.33-11.95c0.11-3.97,0.7-7.91,1.08-11.86c0.09-0.99,0.17-1.98,0.23-2.97
					C301.57,277.84,300.72,277.97,300.71,278.16L300.71,278.16z"/>
			</g>
		</g>
		<path d="M87.71,340.64c-2.99,7.66-8.66,13.93-14.2,20.01c-2.25,2.47-4.5,4.94-6.75,7.4c-2.33,2.56-4.71,5.16-7.71,6.89
			s-6.76,2.49-9.95,1.15c-1.29-0.54-2.52-1.43-3.92-1.42c-2.07,0.01-3.56,1.88-5.06,3.31c-5.8,5.53-16.19,5.12-21.54-0.84
			c-1.54,3.36-1.23,7.51,0.79,10.61s5.69,5.05,9.38,5c3.19-0.04,6.36-1.47,9.5-0.87c3.08,0.59,5.76,3.08,8.88,2.81
			c5.62-0.49,7.04-8.83,12.26-10.98c3.99-1.64,8.3,0.95,12.22,2.74c6.55,2.99,14.05,3.84,21.1,2.4c2.84-0.58,5.72-1.6,7.71-3.71
			c1.98-2.11,2.78-5.55,1.19-7.97c-1.46-2.22-4.54-3.17-5.5-5.65c-0.76-1.97,0.11-4.16,0.98-6.09c3.6-8.04,7.2-16.08,10.79-24.12
			c-6.88,0.1-13.77,0.2-20.65,0.31"/>
		<path class="st0" d="M153.07,302.86c-4.23,23.14-32.22,36.41-34.92,59.15c-15.55-3.61-31.39-5.95-47.32-6.99
			c5.02-17.04,10.28-34.54,21.3-48.47c7.04-8.9,16.18-15.99,23.02-25.05c4.96-6.57,8.63-14.09,14.04-20.3
			c12.37-14.19,31.98-19.65,46.52-31.61"/>
		<path class="st0" d="M187.23,259.12c-0.58,8.52-6.21,15.98-12.92,21.27c-6.71,5.29-14.56,8.89-21.86,13.34
			c-7.29,4.45-14.31,10.08-17.85,17.85"/>
		<path class="st0" d="M156.09,288.34c-2.93,7.5-9.65,12.7-15.84,17.84c-6.19,5.14-12.47,11.2-13.87,19.12"/>
		<g>
			<g>
				<path d="M115.91,286.26c2.3,1.23,4.93,1.69,7.5,1.19c2.14-0.42,4.18-1.51,5.91-2.83c-0.26,0.2-0.6,0.3-0.87,0.5
					c-3.35,2.56-8.03,2.59-11.67,0.64C116.61,285.68,116.06,286.34,115.91,286.26L115.91,286.26z"/>
			</g>
		</g>
		<polygon class="st0" points="124.11,240.25 247.69,140.07 396.3,131.5 511.64,197.08 469.13,206.96 475.06,364.15 363.02,415.23 
			156.74,410.17 156.74,233.74 		"/>
		<polygon points="204.23,244.14 203.31,311.57 236.86,325.3 238.72,252.95 		"/>
		<path class="st0" d="M199.11,243.17c-5.79-0.57-11.38,4.96-10.87,10.76c0.29,3.33,2.22,6.3,2.81,9.59
			c0.59,3.29-1.14,7.54-4.48,7.54"/>
		<path class="st0" d="M192.95,255.56c-0.13,6.02-3.4,11.47-6.55,16.6c-3.16,5.13-6.4,10.6-6.48,16.63
			c-0.08,6.02,4.37,12.54,10.39,12.4"/>
		<path class="st0" d="M189.55,276.24c-0.84,12.54-1.67,25.08-2.51,37.61c-0.2,3-0.23,6.45,1.99,8.48c2.68,2.44,7.26,1.21,9.62-1.54
			s3.14-6.47,4-10c0.86-3.52,2.03-7.24,4.86-9.5c5.73-4.59,14.61-0.83,21.32-3.78c7.03-3.09,9.03-12.03,14.08-17.81
			c7.31-8.37,19.84-9.11,33.41-8.99c3.46-1.86,6.93-3.71,10.39-5.57"/>
		<path class="st0" d="M198.68,282.77c-2.2-4.08-0.21-9.44,3.38-12.37c3.59-2.93,8.36-3.94,12.96-4.5c4.6-0.56,9.33-0.8,13.63-2.52
			c5.17-2.07,9.28-6.1,14.08-8.91c14.79-8.66,34.54-5.05,50.61-12.26c4.85-0.49,9.85-0.97,14.51,0.47
			c4.66,1.44,8.92,5.31,9.25,10.17c0.26,3.75-1.98,7.47-5.25,9.33c-3.27,1.86-7.4,1.94-10.9,0.56"/>
		<polygon points="359.49,416.55 365.36,218.44 412.4,193.32 407.51,377.22 		"/>
		<path class="st0" d="M351.28,243.61c1.44-0.96,2.87-1.91,4.31-2.87c0.93,0.88,0.42,2.53-0.56,3.34c-0.99,0.81-2.29,1.11-3.42,1.71
			s-2.18,1.76-1.93,3.01"/>
		<path class="st0" d="M402.94,197.44c-14.94-2.58-29.81,4.45-42.63,12.55c-12.82,8.1-25.25,17.67-42.12,24.1
			c-3.11-2.06-6.9-4.21-10.37-2.83c-1.51,0.6-2.74,1.82-4.31,2.24c-1.91,0.5-3.9-0.27-5.87-0.34c-3.12-0.12-6.01,1.52-8.71,3.1
			c-0.67,0.39-1.43,0.95-1.37,1.73c0.06,0.68,0.79,1.14,1.47,1.16c0.68,0.01,1.33-0.29,1.95-0.57c3.67-1.64,7.68-2.51,11.7-2.52
			c1.7-0.01,3.44,0.15,4.96,0.91c1.52,0.76,2.78,2.22,3.59,4.8c-4.54-0.88-8.98,1.51-13.14,3.53s-9.15,3.72-13.25,1.58
			c-0.92-0.48-1.76-1.15-2.76-1.43s-2.26-0.05-2.73,0.88c-0.71,1.42,0.91,2.88,2.37,3.5c5.55,2.39,12.16,2.16,17.54-0.61
			c0.73-0.38,1.47-0.81,2.29-0.87c0.82-0.07,1.75,0.37,1.94,1.17c0.23,0.99-0.73,1.84-1.62,2.34c-5.23,2.94-12,2.94-17.23-0.01
			c-0.9-0.51-1.78-1.11-2.8-1.28c-1.02-0.18-2.23,0.21-2.6,1.18c-0.63,1.64,1.41,2.97,3.06,3.54c-0.92-0.35-1.83-0.7-2.75-1.05
			c-0.3,2.35,1.63,4.48,3.83,5.37c2.19,0.89,4.63,0.87,6.98,1.15c2.35,0.28,4.84,0.97,6.31,2.83c-1.75,2.77-5.85,3.72-8.64,2
			c-0.95-0.59-1.74-1.42-2.77-1.85c-1.03-0.43-2.46-0.24-2.91,0.77c-0.61,1.36,0.93,2.66,2.25,3.36c3.71,1.99,8.09,4.02,11.94,2.34
			c2-0.87,3.49-2.63,5.38-3.72c2.28-1.32,5-1.6,7.51-2.41c2.51-0.82,5.07-2.52,5.5-5.12"/>
		<path class="st0" d="M310.37,263.18c4.25-0.48,6.81-4.85,8.51-8.78c1.7-3.93,3.73-8.41,7.83-9.62c-1.96,4.28-3.92,8.55-5.89,12.83
			c3.48-2.98,6.03-7.03,7.23-11.45c0.21-0.78,0.4-1.6,0.9-2.23c0.5-0.63,1.44-1.01,2.14-0.59c0.96,0.57,0.75,2,0.38,3.06
			c-1.51,4.28-3.6,8.35-6.18,12.08c3.13-1.81,6.26-3.62,9.39-5.42c0.41-0.24,0.83-0.48,1.12-0.85c0.84-1.07,0.27-2.67-0.62-3.69
			s-2.09-1.81-2.7-3.01c-0.62-1.21-0.25-3.08,1.09-3.32c1.46-0.26,2.35,1.47,3.1,2.74c0.99,1.68,2.53,3,3.43,4.73
			s0.92,4.22-0.72,5.27c2.16-4.63,4.32-9.26,6.48-13.89c0.37-0.79,0.95-1.71,1.82-1.65c1.34,0.1,1.28,2.1,0.8,3.35
			c-1.73,4.5-3.45,9-5.18,13.5c-0.49,1.28-1.22,2.76-2.58,2.94c-1.88,0.25-3.45-2.25-5.27-1.7c-1.75,0.53-1.89,3.39-3.65,3.88
			c-1.29,0.37-2.51-0.81-3.85-0.89c-1.47-0.09-2.64,1.1-3.83,1.97c-4.43,3.24-10.53,2.32-15.91,1.25c0.62-0.13,1.24-0.27,1.86-0.4"
			/>
		<path class="st0" d="M363.63,335.59c10.3,0.73,20.82-4,27.1-12.19c4.79-6.25,7.11-14.13,12.02-20.29c5.26-6.6,13-10.63,20.2-15.03
			c25.19-15.39,46.22-37.52,60.32-63.45"/>
		<path class="st0" d="M415.29,286.34c1.09,2.4,4.23,3.27,6.79,2.64c2.56-0.63,4.67-2.39,6.68-4.09
			c16.02-13.58,32.05-27.17,48.07-40.75"/>
		<path class="st0" d="M441.49,284.04c5.98,1.89,12.15-1.88,17.24-5.55c5.09-3.67,11.06-7.62,17.14-6.1
			c2.62,0.66,4.89,2.28,7.45,3.14s5.84,0.71,7.8,0.15c-0.23-33.72-0.47-67.44-0.63-100.62c-12.15,0.58-24.3,1.16-38.11,2.62
			c-9.16,16.48-18.74,33.44-33.75,44.85c-9.71,7.38-21.22,12.04-31.2,19.04c-7.91,5.55-14.74,12.48-21.52,19.36
			c-15.24,15.48-30.48,30.97-45.71,46.45"/>
		<path class="st0" d="M340.37,285.8c-9.5,2.34-15.8,11.07-21.28,19.17c-5.47,8.1-11.82,16.82-21.33,19.1"/>
		<path class="st0" d="M303.08,309.91c0.28,23-1.06,46.02-4.41,69c14.31-5.87,24.41-18.77,32.78-31.77
			c8.37-13,15.93-26.94,27.69-36.99"/>
		<path class="st0" d="M305.1,376.1c9.29-0.9,16.8-7.98,22.17-15.62c5.36-7.63,9.44-16.26,15.95-22.94"/>
		<path class="st0" d="M318.58,370.78c6.19-0.58,11.52-4.78,15.24-9.76c3.71-4.98,6.13-10.79,9.03-16.28
			c2.91-5.49,6.51-10.88,11.8-14.14"/>
		<path class="st0" d="M445.48,200.43c-4.09,1.82-8.62,4.12-9.86,8.42c-0.55,1.91-0.38,4.07-1.48,5.73
			c-2.19,3.32-7.17,2.17-11.14,2.05c-7.02-0.22-13.29,3.95-19.8,6.57c-8.12,3.26-16.96,4.16-25.49,6.17
			c-8.52,2-17.21,5.44-23.31,11.81c-0.06,0-0.12,0-0.17,0"/>
		<path class="st0" d="M336.07,207.66c-9.43-9.6-18.86-19.19-27.15-28.18c5.76-6.04,12.49-12.51,20.83-12.57
			c10.69-0.07,18.65,10.37,29.11,12.54c9.67,2,19.35-3.39,29.22-3.48c11.73-0.1,22.42,7.23,34.13,7.97
			c6.64,0.42,13.53-1.29,19.85,0.79c4.63,1.52,8.54,5.1,9.77,10.22c0.15,1.36-1.02,2.56-2.32,2.99s-2.7,0.3-4.07,0.29
			s-2.83,0.15-3.87,1.04"/>
		<path class="st0" d="M333.41,364.97c9.63-1.81,17.12-9.62,21.87-18.2c4.74-8.58,7.38-18.14,11.48-27.04
			c4.11-8.9,10.18-17.52,19.19-21.38"/>
		<path class="st0" d="M358.16,342.36c7.57-4.88,11.93-13.29,16.46-21.08c4.53-7.79,10.15-15.79,18.67-18.69"/>
		<g>
			<g>
				<path d="M402.86,191.16c-4.31-0.11-8.64-0.16-12.9,0.62c-4.66,0.86-9.08,2.75-13.48,4.43c-2.6,1-5.2,1.99-7.82,2.92
					c-0.31,0.11-0.56,0.39-0.87,0.5c4.67-1.66,9.25-3.52,13.9-5.22c2.15-0.79,4.32-1.51,6.56-1.98c2.07-0.43,4.18-0.67,6.29-0.77
					c2.48-0.12,4.96-0.07,7.44-0.01C402.28,191.67,402.58,191.15,402.86,191.16L402.86,191.16z"/>
			</g>
		</g>
		<g>
			<g>
				<path d="M424.51,192.3c-4.9,1.02-9.81,2.01-14.82,2.28c-0.3,0.02-0.57,0.48-0.87,0.5c5.01-0.27,9.92-1.26,14.82-2.28
					C423.96,192.73,424.21,192.36,424.51,192.3L424.51,192.3z"/>
			</g>
		</g>
		<g>
			<g>
				<path d="M344.73,201.42c7.3-5.08,15.16-9.19,23.09-13.19c0.27-0.14,0.62-0.38,0.83-0.48c-6.56,3.3-13.09,6.7-19.33,10.58
					c-1.85,1.15-3.67,2.35-5.45,3.59C344.14,201.73,344.46,201.61,344.73,201.42L344.73,201.42z"/>
			</g>
		</g>
		<g>
			<g>
				<path d="M359.84,193.93c4.09-2.11,8.39-3.75,12.68-5.41c4.02-1.55,8.02-3.46,12.38-3.7c0.3-0.02,0.57-0.48,0.87-0.5
					c-4.44,0.25-8.51,2.22-12.6,3.79c-4.23,1.63-8.46,3.26-12.49,5.34C360.4,193.58,360.05,193.82,359.84,193.93L359.84,193.93z"/>
			</g>
		</g>
		<g>
			<g>
				<path d="M415.67,225.85c-3.83,6.47-7.4,13.1-10.24,20.07c-0.82,2.03-1.59,4.07-2.3,6.14c0.08-0.23,0.78-0.26,0.87-0.5
					c2.45-7.11,5.61-13.93,9.25-20.5c1.06-1.92,2.17-3.82,3.29-5.71C416.39,225.6,415.82,225.6,415.67,225.85L415.67,225.85z"/>
			</g>
		</g>
		<g>
			<g>
				<path d="M411.11,226.99c-4.72,7.21-9.24,14.55-13.5,22.04c-1.22,2.14-2.41,4.29-3.59,6.46c0.13-0.25,0.73-0.25,0.87-0.5
					c4.12-7.56,8.49-14.99,13.09-22.27c1.32-2.09,2.66-4.16,4.01-6.22C411.82,226.74,411.28,226.74,411.11,226.99L411.11,226.99z"/>
			</g>
		</g>
		<g>
			<g>
				<path d="M403.13,231.55c-8,10.16-15.48,20.71-23.13,31.13c-2.15,2.93-4.32,5.86-6.51,8.76c0.18-0.24,0.68-0.25,0.87-0.5
					c7.79-10.32,15.22-20.9,22.98-31.23c2.19-2.91,4.4-5.8,6.65-8.66C403.81,231.29,403.33,231.31,403.13,231.55L403.13,231.55z"/>
			</g>
		</g>
		<g>
			<g>
				<path d="M397.43,229.27c-6.28,6.18-12.74,12.2-18.56,18.82c-6,6.82-11.02,14.4-16.02,21.96c-2.85,4.3-5.7,8.61-8.73,12.79
					c0.18-0.24,0.69-0.25,0.87-0.5c5.35-7.41,10.16-15.19,15.4-22.69c2.59-3.71,5.28-7.34,8.23-10.77c2.87-3.35,5.92-6.54,9.03-9.67
					c3.51-3.52,7.1-6.95,10.65-10.44C398.07,229,397.66,229.04,397.43,229.27L397.43,229.27z"/>
			</g>
		</g>
		<g>
			<g>
				<path d="M300.71,278.16c-0.23,3.96-0.84,7.89-1.14,11.85c-0.31,4.05-0.13,8.01,0.61,12.01c0.72,3.93,1.59,7.78,1.73,11.79
					c0.14,4.11,0.14,8.23,0.11,12.34c-0.07,8.29-0.16,16.58-0.16,24.87c0,8.28,0,16.57,0,24.85c0,4-0.55,7.93-1.02,11.89
					c-0.12,0.99-0.24,1.97-0.24,2.96c-0.01,0.97,0.06,1.93,0.07,2.9c0.01,0.97-0.07,1.93-0.28,2.87c-0.18,0.81-0.45,1.6-0.63,2.41
					c-0.19,0.84-0.25,1.68-0.16,2.54c-0.01-0.13,0.88-0.36,0.87-0.5c-0.18-1.74,0.42-3.29,0.79-4.96c0.43-1.91,0.2-3.83,0.21-5.77
					c0.01-1.97,0.36-3.94,0.6-5.89c0.24-1.97,0.47-3.95,0.58-5.94c0.23-4.1,0.07-8.24,0.07-12.35c0-4.14,0-8.28,0-12.43
					c0-8.3,0.03-16.59,0.13-24.89c0.05-4.12,0.08-8.24,0.01-12.35c-0.04-2.02-0.05-4.06-0.27-6.07c-0.21-1.97-0.59-3.93-0.97-5.87
					c-0.78-3.97-1.44-7.89-1.33-11.95c0.11-3.97,0.7-7.91,1.08-11.86c0.09-0.99,0.17-1.98,0.23-2.97
					C301.57,277.84,300.72,277.97,300.71,278.16L300.71,278.16z"/>
			</g>
		</g>
	</g>
</g>
<g id="Layer_5">
</g>
</svg>
