<?xml version="1.0" encoding="utf-8"?>
<!-- Generator: Adobe Adobe Illustrator 24.2.0, SVG Export Plug-In . SVG Version: 6.00 Build 0)  -->
<svg version="1.1" xmlns="http://www.w3.org/2000/svg" xmlns:xlink="http://www.w3.org/1999/xlink" x="0px" y="0px"
	 viewBox="0 0 620.71 620.71" style="enable-background:new 0 0 620.71 620.71;" xml:space="preserve">
<style type="text/css">
	.st0{fill:#FFFFFF;stroke:#000000;stroke-miterlimit:10;}
	.st1{fill:#FFFFFF;}
	.st2{fill:none;stroke:#000000;stroke-miterlimit:10;}
	.st3{stroke:#FFFFFF;stroke-miterlimit:10;}
	.st4{fill:#F2F2F2;}
	.st5{fill:#F2F2F2;stroke:#000000;stroke-miterlimit:10;}
	.st6{fill:#F4F4F4;stroke:#000000;stroke-miterlimit:10;}
	.st7{stroke:#000000;stroke-miterlimit:10;}
</style>
<g id="Layer_1">
	<rect x="-10.64" y="-14.64" class="st4" width="642" height="650"/>
</g>
<g id="Layer_2">
	<g>
		<polygon class="st3" points="73.78,451.95 297.59,524.1 562.63,490.24 327.04,409.25 		"/>
		<g>
			<path class="st0" d="M272.9,288.99c49.2,7.53,98.4,15.07,147.93,22.85c-5.15,56.15-7.45,112.56-6.51,172.9
				c-51.56,8.45-103.37,15.39-154.23,21.17c-64.13-25.8-130.93-44.97-197.81-55.5c-0.06-43.5-0.12-87-4.2-127.86
				c71.76-15.38,144.49-26.26,217.61-32.56"/>
			<path class="st0" d="M263.77,495.44c49.16-9.33,98.33-18.66,147.49-27.99"/>
			<path class="st0" d="M258.9,384.14c51.96-20.46,103.91-40.92,158.85-55.05c-51.42,22.31-102.85,44.62-154.27,66.93"/>
			<path class="st0" d="M418.12,352.77c-51.9,12.48-102.75,29.31-151.85,50.24"/>
			<path class="st0" d="M417.18,368.54c-53.04,8.67-104.93,24.35-153.91,46.49"/>
			<path class="st0" d="M414.37,378.83c-51.53,6.94-102.18,20.37-150.37,39.88"/>
			<path class="st0" d="M263.74,424.39c48.89-15.98,99.2-27.65,150.11-25.43c-50.18,5.86-99.69,17.48-147.24,34.55"/>
			<path class="st0" d="M413.34,411.3c-48.47,1.73-96.62,11.93-141.64,29.98"/>
			<path class="st0" d="M410.98,425.45c-47.09,1.05-93.99,9.85-138.25,25.95"/>
			<path class="st0" d="M407.67,442.06c-43.72-1.32-87.66,5.27-129.07,19.35"/>
			<path class="st0" d="M409.56,452.56c-47.16,1.62-94.14,8.57-139.76,20.68"/>
			<path class="st0" d="M415.22,467.95c-49.91-2.12-100.17,4.2-148.01,18.59"/>
			<path class="st0" d="M60.74,360.79c27.53,12.33,55.06,24.65,82.58,36.98"/>
			<path class="st0" d="M213.88,404.01c-51.45-18.71-102.9-37.42-153.1-64.65c57.64,16.18,114.28,35.97,169.45,59.22"/>
			<g>
				<path class="st0" d="M346.87,261.97c0.08-0.66,1.38-0.39,1.18,0.25c-0.2,0.64-0.35-0.93-0.05-1.52
					c-22.45,14.81-52.92,13.56-79.31,8.43c-26.4-5.13-53.61-12.54-79.73-6.12c-14.04,3.45-26.79,10.71-40.29,15.88
					c-13.49,5.17-28.79,8.2-42.25,2.94c-8.7-3.4-16.3-10.13-25.61-10.92c-13.49-1.14-25.69,13.68-21.36,25.96
					c61.73,11.7,122.53,28.34,181.18,50.04c6.78-11.54,21.24-16.12,34.6-17.03s26.99,0.85,40.01-2.25
					c14.87-3.55,27.48-13.08,41.31-19.59c11.19-5.27,23.21-8.56,34.47-13.69c11.25-5.13,22.08-12.54,27.85-23.47l-68.71-10.16"/>
				<path class="st0" d="M307.79,295.64c-8.98,4.6-18.07,9.25-27.9,11.48c-9.83,2.24-20.65,1.85-29.38-3.21
					c-6.05-3.51-11.62-9.33-18.59-8.79c-4.07,0.32-7.59,2.82-11.24,4.65s-8.27,2.97-11.66,0.68c-4.52-3.05-3.94-9.89-6.67-14.62
					c-2.17-3.76-6.71-6.01-11.02-5.47c-4.31,0.54-8.14,3.85-9.24,8.67c-3.94-2.13-6.68-6.33-7.06-10.79
					c5.79,11.58,13.39,22.14,20.96,32.64c5.42,7.51,13.14,15.96,22.15,13.8c4.9-1.17,8.5-5.29,13.03-7.49
					c10.65-5.15,23.09,1.24,34.91,1.27c15.94,0.04,29.32-11.36,41.09-22.12"/>
				<path class="st0" d="M296.6,280.73c-1.74-1.84-5.18-1.32-6.56,0.8s-0.73,5.21,1.19,6.87c1.92,1.66,4.79,1.95,7.17,1.07
					c2.28-0.84,4.25-2.92,4.27-5.35s-2.56-4.72-4.83-3.88"/>
				<path class="st0" d="M369.51,272.17c-6.6-1.73-13.98-0.23-19.38,3.94c-2.38,1.84-4.53,4.69-3.86,7.62
					c0.58,2.51,3.12,4.18,5.67,4.55c2.55,0.37,5.12-0.29,7.62-0.95c3.93-1.03,8.12-2.22,10.74-5.32c2.63-3.1,2.57-8.75-1.11-10.49"
					/>
			</g>
			<g>
				<path class="st0" d="M207.57,298.61c3.59-14.02,18.54-24.12,32.89-22.22c9.82,1.3,20.13,7.35,28.93,2.78
					c7.34-3.81,9.85-13.46,16.76-18.01c9.11-6,21.09-0.83,31.99-0.28c13.18,0.66,25.68-5.86,36.33-13.66
					c10.64-7.8,20.27-17.1,31.85-23.44s26.02-9.36,37.93-3.69c-35.78-19.47-70.27-41.31-103.17-65.34
					c-1.46,6.11-8.11,9.5-14.31,10.55c-6.2,1.05-12.71,0.61-18.58,2.87c-6.32,2.44-11.06,7.68-16.49,11.74
					c-14.19,10.6-34.2,12.82-50.36,5.58c-5-2.24-10.09-5.39-15.52-4.63c-9.21,1.29-12.97,12.24-19.23,19.11
					c-7.48,8.22-19.32,10.8-30.41,11.52c-11.1,0.72-22.5,0.06-33.04,3.6s-20.26,12.83-17.1,25.69
					c32.23,20.82,65.72,39.7,100.21,56.51"/>
				<path class="st0" d="M283.7,190.03c2.2-1.78,5.7-1.69,7.8,0.21c-11.2,8.86-22.4,17.72-33.6,26.59
					c-4.45,3.52-9.39,9.14-6.62,14.09c2.96,5.27,10.86,3.37,16.44,1.04c30.43-12.71,64.32-17.05,96.97-12.42"/>
				<path class="st0" d="M307.28,178.2c2.33-3.06,6.94-4.1,10.36-2.33c3.41,1.77,5.23,6.14,4.07,9.81c2.12,0.07,4.24,0.13,6.37,0.2"
					/>
				<path class="st0" d="M347.4,204.04c0.12-3.49,4.96-4.95,8.15-3.51s5.27,4.5,7.9,6.8c2.63,2.31,6.72,3.84,9.51,1.73"/>
				<path class="st0" d="M365.62,197.07c-1.21-0.75-2.81-0.73-4.11-0.14c-1.3,0.59-2.32,1.69-3.04,2.92
					c-0.87,1.5-1.33,3.4-0.59,4.96c0.77,1.62,2.64,2.46,4.43,2.59c1.83,0.13,3.75-0.39,5.12-1.61s2.14-3.16,1.74-4.96
					c-0.39-1.79-2.03-3.3-3.87-3.35"/>
				<path class="st0" d="M322.23,169.22c-2.16,0.29-4.52,1.17-5.35,3.18c-0.55,1.32-0.27,2.92,0.59,4.07
					c0.86,1.15,2.23,1.86,3.65,2.04c1.89,0.24,3.91-0.46,5.14-1.92c1.23-1.46,1.57-3.65,0.71-5.36c-0.86-1.7-2.92-2.75-4.78-2.31"/>
			</g>
			<g>
				<path class="st0" d="M203.58,247.49c-43.7-14.68-87.5-29.04-131.3-43.4c2.32-12.29,12.38-17.31,22.29-20.59
					s20.36-5.39,29.36-10.7c9-5.31,15.9-13.45,22.86-21.24c17.09-19.1,35.6-36.94,56.41-54.95c40.85,0.88,81.65,3.89,123.12,10.96
					c-25.72,9.03-49.53,23.48-69.43,42.12c-2.56,2.4-5.18,5.08-5.87,8.53s1.55,7.66,5.05,7.71c2.33,0.03,4.39-1.7,6.71-1.74
					c4.67-0.08,6.52,6.95,3.61,10.61c-2.91,3.65-8.07,4.49-12.73,4.74s-9.68,0.3-13.46,3.05s-4.92,9.44-0.87,11.76
					c1.65,0.95,3.75,0.96,5.28,2.08c2.48,1.81,2.3,5.78,0.5,8.27c-1.79,2.49-4.68,3.89-7.38,5.35
					c-15.77,8.52-28.76,22.07-36.59,38.19"/>
				<path class="st0" d="M224.28,135.91c-2.14-2.28-1.51-6.24,0.73-8.41c2.24-2.17,5.59-2.81,8.71-2.61
					c3.11,0.21,6.13,1.14,9.2,1.71c8.71,1.59,17.96,0.05,25.68-4.29"/>
				<path class="st0" d="M242.68,127.56c-0.49,3.02,2.14,6.16,5.21,6.19c3.06,0.03,5.77-3.05,5.34-6.08"/>
				<path class="st0" d="M167.9,139.91c-0.07-3.93,3.18-7.34,6.92-8.56c3.74-1.22,7.82-0.66,11.63,0.29
					c3.81,0.95,7.55,2.3,11.47,2.66c3.91,0.36,8.16-0.42,10.97-3.17"/>
				<path class="st0" d="M181.21,132.57c-0.91,2.71,0.82,6.01,3.56,6.81c2.74,0.81,5.97-1.03,6.68-3.81"/>
				<path class="st0" d="M173.44,160.83c0.49,5.24,1.01,10.59,3.14,15.41c2.12,4.82,6.17,9.11,11.34,10.11
					c4.32,0.84,8.74-0.68,12.76-2.46c12.99-5.73,24.65-14.45,33.83-25.28"/>
				<path class="st0" d="M160.73,161.85c-0.5-3.8,4.61-6.33,8.16-4.89s5.58,5.14,7.13,8.65c1.54,3.51,3.05,7.31,6.19,9.51
					c3.98,2.78,9.36,2.16,14.07,0.98c15.38-3.86,29.13-12.34,42.61-20.7"/>
			</g>
		</g>
	</g>
</g>
<g id="Layer_5">
</g>
</svg>
