<?xml version="1.0" encoding="utf-8"?>
<!-- Generator: Adobe Adobe Illustrator 24.2.0, SVG Export Plug-In . SVG Version: 6.00 Build 0)  -->
<svg version="1.1" xmlns="http://www.w3.org/2000/svg" xmlns:xlink="http://www.w3.org/1999/xlink" x="0px" y="0px"
	 viewBox="0 0 620.71 620.71" style="enable-background:new 0 0 620.71 620.71;" xml:space="preserve">
<style type="text/css">
	.st0{fill:#FFFFFF;stroke:#000000;stroke-miterlimit:10;}
	.st1{fill:#FFFFFF;}
	.st2{fill:none;stroke:#000000;stroke-miterlimit:10;}
	.st3{stroke:#FFFFFF;stroke-miterlimit:10;}
	.st4{fill:#F2F2F2;}
	.st5{fill:#F2F2F2;stroke:#000000;stroke-miterlimit:10;}
	.st6{fill:#F4F4F4;stroke:#000000;stroke-miterlimit:10;}
	.st7{stroke:#000000;stroke-miterlimit:10;}
</style>
<g id="Layer_1">
</g>
<g id="Layer_2">
	<path class="st0" d="M122.35,251.47c9.21-5.89,18.63-11.44,28.25-16.63c2.85-1.54,6.17-3.09,9.21-1.97
		c3.9,1.43,5.09,6.83,3.29,10.57c-1.8,3.75-5.62,6.08-9.43,7.75c-8.54,3.76-18.1,5.34-25.89,10.48c-9,5.94-14.57,16.07-17.21,26.53
		c-2.64,10.46-2.65,21.38-2.66,32.16c-13.66-3.41-28.11-3.63-41.87-0.63"/>
	<path class="st0" d="M106.4,246.1c4.81,12.34,0.08,26.12-4.45,38.57c-4.53,12.44-8.85,26.49-3.36,38.54
		c4.99,10.94,17.36,18.23,19.09,30.13c0.87,5.97-1.2,12.13,0.03,18.04c1.44,6.89,7.01,12.01,11.85,17.12
		c15.38,16.22,26.1,37.6,26.43,59.95c0.26,17.31-5.64,34.26-14.17,49.33c-8.53,15.06-19.64,28.48-30.69,41.81
		c21.33-0.17,42.65-0.35,63.98-0.52"/>
	<path class="st0" d="M220.67,293.28c-4.5,7.28-4.75,16.4-3.76,24.89c1,8.5,3.11,16.92,2.86,25.47
		c-0.42,14.04-7.12,26.98-12.74,39.85c-5.62,12.87-10.33,27.21-6.62,40.75"/>
	<path class="st0" d="M223.11,295.58c-0.56-4.06,5.59-6.16,8.91-3.77c3.33,2.39,4.27,6.85,4.97,10.89
		c4.17,24.24,8.33,48.48,12.5,72.73c2.02,11.75,4.05,23.62,3.43,35.53c-1.74,33.57-24.2,64.17-22.47,97.74"/>
	<path class="st0" d="M226.48,292.83c0.71-16.73,1.41-33.46,2.07-49.68c30.44,2.04,60.87,4.08,91.31,6.11
		c-4.1,56.55-8.2,113.1-12.3,169.66"/>
	<path class="st0" d="M329.59,248.78c2.93-10.79,14.84-17,26.01-17.42s21.95,3.57,32.69,6.68c10.74,3.1,22.42,5.32,32.92,1.48
		c10.61-3.88,18.06-13.2,26.32-20.91s19.49-14.42,30.33-11.23c4.75,1.4,8.78,4.56,13.38,6.39c10.22,4.07,21.91,1.13,31.87-3.55
		c9.95-4.68,19.16-11.07,30.63-11.22c-0.66,71.71-3.59,143.4-6.74,217.86c-8.13-9.62-23.33-8.3-35.23-4.16
		c-11.9,4.13-24.14,10.32-36.44,7.62c-9.39-2.06-18.32-9.23-27.58-6.65c-8.47,2.36-12.93,11.91-20.84,15.75
		c-7.68,3.73-16.95,1.3-24.53-2.63c-7.58-3.92-14.5-9.3-22.66-11.8c-11.33-3.47-23.82-0.91-34.4,4.43s-19.59,13.27-28.48,21.11"/>
	<path class="st0" d="M129.73,233.49c-9.16,3.07-12.83,14.13-13.17,23.79c-0.34,9.65,1.26,19.78-2.6,28.64
		c-2.81,6.45-8.39,11.8-9.34,18.76c-2.02,14.77,16.99,24.39,19.53,39.08c1.08,6.28-1.02,12.87,0.57,19.04
		c1.4,5.44,5.44,9.73,9.13,13.98c12.03,13.88,21.6,29.89,28.13,47.07"/>
	<path class="st0" d="M221.12,262.84c-21.39-7.98-47.1-11.26-65.73,1.94c-3.95,2.8-7.41,6.23-10.84,9.65
		c-5.81,5.78-11.62,11.56-17.44,17.34c-1.5,1.49-3.06,3.09-3.59,5.14c-0.86,3.39,1.46,6.87,4.38,8.79c2.92,1.92,6.4,2.76,9.59,4.2
		c8.15,3.68,14.25,11.57,15.75,20.39c1.26,7.39-0.54,14.94-0.39,22.44c0.27,13.21,6.53,25.46,12.65,37.17"/>
	<path class="st0" d="M204.64,370.5c-6.45-10.72-10.84-22.66-12.88-35c-0.69-4.21-1.25-8.75-4.12-11.91
		c-2.69-2.96-6.95-4.11-9.69-7.03c-4.62-4.93-3.39-12.89-6.18-19.04c-3.41-7.49-13.52-11.04-20.86-7.32"/>
	<path class="st0" d="M161.74,286.26c2.91-3.7,5.86-7.43,9.6-10.29c3.74-2.85,8.41-4.78,13.09-4.29c6.05,0.63,11.77,5.15,17.65,3.59
		c1.47-0.39,2.91-1.15,4.41-0.93c1.47,0.22,2.61,1.32,3.8,2.21c4.09,3.09,9.75,3.96,14.57,2.26"/>
	<g>
		<path d="M439.93,135.13c0.83-1.02-1.41-2.12-2.86-1.62s-2.15,1.71-3.1,2.67s-2.78,1.75-4.08,1.06c1.01-1.65,2.03-3.3,3.04-4.95
			c-1.14,1.01-2.4,2.08-4.11,2.42c-1.71,0.34-3.93-0.46-3.94-1.78c-0.01-1.85,3.46-2.26,5.3-3.5c3.07-2.08,1.21-6.49,4.84-8.52
			c1.77,0.55,3.79-0.34,4.98-1.47c1.18-1.13,1.92-2.51,3.28-3.52s3.76-1.5,5.15-0.51c1.36,0.97,0.9,2.63,0.5,4
			c-0.39,1.37-0.32,3.18,1.42,3.72c1.54,0.47,3.19-0.46,4.26-1.41s2.24-2.08,3.9-2.15c2.37-0.1,3.8,2.23,2.99,3.89
			c-0.81,1.66-2.95,2.72-4.96,3.67c1.85-0.31,3.84-0.62,5.62-0.11c1.77,0.51,3.06,2.2,2.03,3.39c-0.91,1.06-2.93,1.12-4.6,0.96
			c-1.67-0.16-3.55-0.4-4.88,0.37s-0.72,2.9,0.92,2.62"/>
		<path d="M460.85,134.01c0.96,0.84,1.93,1.67,2.89,2.51c-2.72,1.34-6.53,1.33-9.24-0.02"/>
		<path d="M426.81,134.66c-1.56,1.31-3.75,2.07-5.91,2.75c-2.16,0.68-4.39,1.32-6.17,2.46c-1.78,1.14-3.04,2.91-2.55,4.62
			c0.48,1.71,3.2,3.03,5.29,2.24c1.02-0.38,1.69-1.14,2.58-1.67c0.89-0.53,2.35-0.78,3.09-0.13c1.15,1-0.73,2.34-2.32,2.9
			c-3.85,1.35-7.74,2.75-10.89,4.89s-5.5,5.13-5.4,8.3c1.69,0.09,3.43-0.45,4.55-1.4c-2.06,3.09-4.12,6.17-6.18,9.26
			c-0.43,0.64-0.86,1.42-0.38,2.05c0.88,1.14,3.22,0.33,4.51-0.57c4.75-3.3,9.5-6.59,14.25-9.89c0.02,2.96-1.24,5.91-3.55,8.31
			c0.18-0.31,0.35-0.62,0.53-0.93"/>
		<path d="M425.21,160.39c0.38,1.41,0.76,2.83,1.14,4.24"/>
		<path d="M467.54,135.23c2.31-0.81,4.73-1.63,7.28-1.54c2.55,0.09,5.21,1.41,5.41,3.31c0.13,1.3-0.88,2.63-0.34,3.87
			c0.79,1.82,4.19,2.04,6.6,1.39s4.72-1.83,7.26-1.63c2.7,0.22,4.86,2.19,4.85,4.22c-0.01,2.03-1.99,3.92-4.56,4.59
			c1.91-2.62,7.33-3.28,10.26-1.25s2.45,6.11-0.9,7.73"/>
		<path d="M484.74,154.04c-11.08,2.24-20.59,8.44-25.04,16.34c1.36-0.1,2.76-0.19,4.05,0.12c1.3,0.31,2.48,1.13,2.54,2.15
			c0.11,1.78-3.01,3-2.81,4.77c0.12,1.03,1.46,1.83,2.85,1.92c1.39,0.09,2.74-0.41,3.77-1.11c-0.58,1.59-1.14,3.31-0.29,4.83
			c0.85,1.52,3.81,2.42,5.32,1.22"/>
		<path d="M476.63,181.8c-0.82,0.81-2.24,1.27-3.59,1.16c0.16-1.87,0.31-3.74,2.46-5.82c0.6,1.38,1.21,2.77,1.81,4.15
			c0.85-0.51,1.7-1.01,2.54-1.52"/>
		<path d="M482.02,179.47c-1.14-1.06-2.27-2.12-3.41-2.76c0.19-1.54,0.39-3.08,0.58-4.62c2.01,0.97,4.77,0.97,6.79,0.01
			s3.16-2.84,2.81-4.61c2.05,0.59,4.55,0.19,6.1-0.97c1.55-1.16,2.08-3.02,1.29-4.55c3.4,0.47,7.08-1.36,7.8-3.89"/>
		<path d="M410.74,169.27c1.95,1.02,4.39,1.52,6.77,1.38c0.79-1.12,1.58-2.24,2.37-3.36"/>
		<path d="M410.8,171.55c1.76,1.23,4.41,1.69,6.71,1.17c2.3-0.52,4.18-1.99,4.74-3.74c0.33,1.38,3.19,1.57,4.51,0.58
			c1.32-1,1.5-2.53,1.59-3.93"/>
		<path d="M414.24,175.16c-12.98,24.76-19.05,51.53-17.69,78.1"/>
		<path d="M479.31,185.34c3.86,24.37,10.41,48.5,19.54,72.07c1.51-0.67,3.02-1.35,3.62-2.02c3.15-0.11,4.68-2.81,6.27-4.84
			c1.59-2.03,5.83-3.67,7.52-1.69c1.18,1.39-0.27,3.15-1.68,4.41c-5.93,5.25-12.46,10.13-19.5,14.56c-2.12,1.33-4.46,2.68-7.22,2.86
			c-5.2,0.33-9.35-4.76-6.57-8.05c-5.15,1.92-11.26,2.34-16.79,1.16c2.88,0.01,4.4-2.77,3.69-4.86c-0.71-2.08-2.75-3.76-3.9-5.73
			c-2.06-3.51-1.16-7.54-0.65-11.35c2.31-17.21-4.47-35.01-21.14-48.27c-6.88,4.87-8.23,12.51-11.13,19.25
			c-3.72,8.64-10.62,16.51-19.75,22.52"/>
		<path d="M395.62,255.5c-0.76,3.24-1.51,6.48-2.27,9.71c3.46,0.77,7.15,0.95,10.72,0.52c-1.92,5.37-7.83,9.85-15.01,11.35
			c-1.37,0.29-2.84,0.5-3.93,1.19c-1.09,0.69-1.54,2.08-0.49,2.8c1.86,1.28,4.86-1.08,7.24-0.43c1.4,0.38,2,1.66,3.3,2.2
			c1.55,0.65,3.48,0.07,5.07-0.52c5.38-1.97,10.77-3.95,16.15-5.92c1.92-0.7,3.93-1.46,5.14-2.78c2.37-2.58,0.77-6.07-0.89-8.94
			c1.98,0.47,4.3-0.02,5.67-1.18c1.37-1.16,1.72-2.94,0.85-4.34"/>
	</g>
</g>
<g id="Layer_5">
</g>
</svg>
